G75*
%MOIN*%
%OFA0B0*%
%FSLAX25Y25*%
%IPPOS*%
%LPD*%
%AMOC8*
5,1,8,0,0,1.08239X$1,22.5*
%
%ADD10C,0.08000*%
%ADD11C,0.07400*%
%ADD12C,0.07677*%
%ADD13OC8,0.04800*%
%ADD14C,0.06400*%
%ADD15C,0.00600*%
%ADD16C,0.02378*%
D10*
X0023700Y0070000D03*
X0023700Y0080000D03*
X0034700Y0080000D03*
X0034700Y0070000D03*
D11*
X0019200Y0100000D03*
X0019200Y0110000D03*
X0019200Y0120000D03*
X0019200Y0130000D03*
X0019200Y0140000D03*
X0019200Y0150000D03*
X0064200Y0045000D03*
X0064200Y0035000D03*
X0064200Y0025000D03*
X0074200Y0025000D03*
X0074200Y0035000D03*
X0074200Y0045000D03*
X0104200Y0060000D03*
X0114200Y0060000D03*
X0114200Y0090000D03*
X0104200Y0090000D03*
X0104200Y0120000D03*
X0114200Y0120000D03*
X0119200Y0160000D03*
X0119200Y0170000D03*
X0119200Y0180000D03*
X0119200Y0190000D03*
X0119200Y0200000D03*
X0119200Y0210000D03*
X0119200Y0220000D03*
X0119200Y0230000D03*
D12*
X0024200Y0058937D03*
X0024200Y0036102D03*
X0043098Y0047126D03*
D13*
X0054200Y0045000D03*
X0054200Y0025000D03*
X0129200Y0045000D03*
X0129200Y0065000D03*
X0129200Y0075000D03*
X0129200Y0095000D03*
X0129200Y0110000D03*
X0129200Y0130000D03*
D14*
X0079200Y0130000D03*
X0079200Y0120000D03*
X0079200Y0110000D03*
X0079200Y0100000D03*
X0079200Y0090000D03*
X0049200Y0090000D03*
X0049200Y0100000D03*
X0049200Y0110000D03*
X0049200Y0120000D03*
X0049200Y0130000D03*
X0049200Y0140000D03*
X0049200Y0150000D03*
X0049200Y0160000D03*
X0049200Y0170000D03*
X0049200Y0180000D03*
X0049200Y0190000D03*
X0049200Y0200000D03*
X0049200Y0210000D03*
X0049200Y0220000D03*
X0079200Y0220000D03*
X0079200Y0210000D03*
X0079200Y0200000D03*
X0079200Y0190000D03*
X0079200Y0180000D03*
X0079200Y0170000D03*
X0079200Y0160000D03*
X0079200Y0150000D03*
X0079200Y0140000D03*
D15*
X0006000Y0238200D02*
X0006000Y0006800D01*
X0137400Y0006800D01*
X0137400Y0238200D01*
X0006000Y0238200D01*
X0006000Y0237821D02*
X0137400Y0237821D01*
X0137400Y0237222D02*
X0006000Y0237222D01*
X0006000Y0236624D02*
X0137400Y0236624D01*
X0137400Y0236025D02*
X0006000Y0236025D01*
X0006000Y0235427D02*
X0137400Y0235427D01*
X0137400Y0234828D02*
X0120520Y0234828D01*
X0120371Y0234877D02*
X0119594Y0235000D01*
X0119500Y0235000D01*
X0119500Y0230300D01*
X0118900Y0230300D01*
X0118900Y0229700D01*
X0114200Y0229700D01*
X0114200Y0229606D01*
X0114323Y0228829D01*
X0114566Y0228081D01*
X0114924Y0227379D01*
X0115386Y0226743D01*
X0115943Y0226186D01*
X0116579Y0225724D01*
X0117281Y0225366D01*
X0118002Y0225132D01*
X0116254Y0224408D01*
X0114792Y0222946D01*
X0114000Y0221034D01*
X0114000Y0218966D01*
X0114792Y0217054D01*
X0116254Y0215592D01*
X0117683Y0215000D01*
X0116254Y0214408D01*
X0114792Y0212946D01*
X0114000Y0211034D01*
X0114000Y0208966D01*
X0114792Y0207054D01*
X0116254Y0205592D01*
X0117683Y0205000D01*
X0116254Y0204408D01*
X0114792Y0202946D01*
X0114000Y0201034D01*
X0114000Y0198966D01*
X0114792Y0197054D01*
X0116254Y0195592D01*
X0117683Y0195000D01*
X0116254Y0194408D01*
X0114792Y0192946D01*
X0114000Y0191034D01*
X0114000Y0188966D01*
X0114792Y0187054D01*
X0116254Y0185592D01*
X0117683Y0185000D01*
X0116254Y0184408D01*
X0114792Y0182946D01*
X0114000Y0181034D01*
X0114000Y0178966D01*
X0114792Y0177054D01*
X0116254Y0175592D01*
X0117683Y0175000D01*
X0116254Y0174408D01*
X0114792Y0172946D01*
X0114000Y0171034D01*
X0114000Y0168966D01*
X0114792Y0167054D01*
X0116254Y0165592D01*
X0117683Y0165000D01*
X0116254Y0164408D01*
X0114792Y0162946D01*
X0114000Y0161034D01*
X0114000Y0158966D01*
X0114475Y0157820D01*
X0098454Y0141800D01*
X0083542Y0141800D01*
X0083184Y0142662D01*
X0081862Y0143984D01*
X0080135Y0144700D01*
X0078265Y0144700D01*
X0076538Y0143984D01*
X0075216Y0142662D01*
X0074500Y0140935D01*
X0074500Y0139065D01*
X0075216Y0137338D01*
X0076538Y0136016D01*
X0078265Y0135300D01*
X0080135Y0135300D01*
X0081862Y0136016D01*
X0083184Y0137338D01*
X0083542Y0138200D01*
X0099946Y0138200D01*
X0101000Y0139254D01*
X0117020Y0155275D01*
X0118166Y0154800D01*
X0120234Y0154800D01*
X0122146Y0155592D01*
X0123608Y0157054D01*
X0124400Y0158966D01*
X0124400Y0161034D01*
X0123608Y0162946D01*
X0122146Y0164408D01*
X0120717Y0165000D01*
X0122146Y0165592D01*
X0123608Y0167054D01*
X0124400Y0168966D01*
X0124400Y0171034D01*
X0123608Y0172946D01*
X0122146Y0174408D01*
X0120717Y0175000D01*
X0122146Y0175592D01*
X0123608Y0177054D01*
X0124400Y0178966D01*
X0124400Y0181034D01*
X0123608Y0182946D01*
X0122146Y0184408D01*
X0120717Y0185000D01*
X0122146Y0185592D01*
X0123608Y0187054D01*
X0124400Y0188966D01*
X0124400Y0191034D01*
X0123608Y0192946D01*
X0122146Y0194408D01*
X0120717Y0195000D01*
X0122146Y0195592D01*
X0123608Y0197054D01*
X0124400Y0198966D01*
X0124400Y0201034D01*
X0123608Y0202946D01*
X0122146Y0204408D01*
X0120717Y0205000D01*
X0122146Y0205592D01*
X0123608Y0207054D01*
X0124400Y0208966D01*
X0124400Y0211034D01*
X0123608Y0212946D01*
X0122146Y0214408D01*
X0120717Y0215000D01*
X0122146Y0215592D01*
X0123608Y0217054D01*
X0124400Y0218966D01*
X0124400Y0221034D01*
X0123608Y0222946D01*
X0122146Y0224408D01*
X0120398Y0225132D01*
X0121119Y0225366D01*
X0121821Y0225724D01*
X0122457Y0226186D01*
X0123014Y0226743D01*
X0123476Y0227379D01*
X0123834Y0228081D01*
X0124077Y0228829D01*
X0124200Y0229606D01*
X0124200Y0229700D01*
X0119500Y0229700D01*
X0119500Y0230300D01*
X0124200Y0230300D01*
X0124200Y0230394D01*
X0124077Y0231171D01*
X0123834Y0231919D01*
X0123476Y0232621D01*
X0123014Y0233257D01*
X0122457Y0233814D01*
X0121821Y0234276D01*
X0121119Y0234634D01*
X0120371Y0234877D01*
X0119500Y0234828D02*
X0118900Y0234828D01*
X0118900Y0235000D02*
X0118807Y0235000D01*
X0118029Y0234877D01*
X0117281Y0234634D01*
X0116579Y0234276D01*
X0115943Y0233814D01*
X0115386Y0233257D01*
X0114924Y0232621D01*
X0114566Y0231919D01*
X0114323Y0231171D01*
X0114200Y0230394D01*
X0114200Y0230300D01*
X0118900Y0230300D01*
X0118900Y0235000D01*
X0118900Y0234230D02*
X0119500Y0234230D01*
X0119500Y0233631D02*
X0118900Y0233631D01*
X0118900Y0233033D02*
X0119500Y0233033D01*
X0119500Y0232434D02*
X0118900Y0232434D01*
X0118900Y0231836D02*
X0119500Y0231836D01*
X0119500Y0231237D02*
X0118900Y0231237D01*
X0118900Y0230639D02*
X0119500Y0230639D01*
X0119500Y0230040D02*
X0137400Y0230040D01*
X0137400Y0229442D02*
X0124174Y0229442D01*
X0124079Y0228843D02*
X0137400Y0228843D01*
X0137400Y0228245D02*
X0123887Y0228245D01*
X0123612Y0227646D02*
X0137400Y0227646D01*
X0137400Y0227048D02*
X0123235Y0227048D01*
X0122720Y0226449D02*
X0137400Y0226449D01*
X0137400Y0225851D02*
X0121995Y0225851D01*
X0121553Y0224654D02*
X0137400Y0224654D01*
X0137400Y0225252D02*
X0120768Y0225252D01*
X0122499Y0224055D02*
X0137400Y0224055D01*
X0137400Y0223457D02*
X0123097Y0223457D01*
X0123645Y0222858D02*
X0137400Y0222858D01*
X0137400Y0222260D02*
X0123893Y0222260D01*
X0124140Y0221661D02*
X0137400Y0221661D01*
X0137400Y0221063D02*
X0124388Y0221063D01*
X0124400Y0220464D02*
X0137400Y0220464D01*
X0137400Y0219866D02*
X0124400Y0219866D01*
X0124400Y0219267D02*
X0137400Y0219267D01*
X0137400Y0218669D02*
X0124277Y0218669D01*
X0124029Y0218070D02*
X0137400Y0218070D01*
X0137400Y0217472D02*
X0123781Y0217472D01*
X0123427Y0216873D02*
X0137400Y0216873D01*
X0137400Y0216274D02*
X0122828Y0216274D01*
X0122230Y0215676D02*
X0137400Y0215676D01*
X0137400Y0215077D02*
X0120904Y0215077D01*
X0121975Y0214479D02*
X0137400Y0214479D01*
X0137400Y0213880D02*
X0122673Y0213880D01*
X0123272Y0213282D02*
X0137400Y0213282D01*
X0137400Y0212683D02*
X0123717Y0212683D01*
X0123965Y0212085D02*
X0137400Y0212085D01*
X0137400Y0211486D02*
X0124213Y0211486D01*
X0124400Y0210888D02*
X0137400Y0210888D01*
X0137400Y0210289D02*
X0124400Y0210289D01*
X0124400Y0209691D02*
X0137400Y0209691D01*
X0137400Y0209092D02*
X0124400Y0209092D01*
X0124205Y0208494D02*
X0137400Y0208494D01*
X0137400Y0207895D02*
X0123957Y0207895D01*
X0123709Y0207297D02*
X0137400Y0207297D01*
X0137400Y0206698D02*
X0123252Y0206698D01*
X0122654Y0206100D02*
X0137400Y0206100D01*
X0137400Y0205501D02*
X0121927Y0205501D01*
X0120952Y0204903D02*
X0137400Y0204903D01*
X0137400Y0204304D02*
X0122250Y0204304D01*
X0122848Y0203706D02*
X0137400Y0203706D01*
X0137400Y0203107D02*
X0123447Y0203107D01*
X0123789Y0202509D02*
X0137400Y0202509D01*
X0137400Y0201910D02*
X0124037Y0201910D01*
X0124285Y0201312D02*
X0137400Y0201312D01*
X0137400Y0200713D02*
X0124400Y0200713D01*
X0124400Y0200115D02*
X0137400Y0200115D01*
X0137400Y0199516D02*
X0124400Y0199516D01*
X0124380Y0198918D02*
X0137400Y0198918D01*
X0137400Y0198319D02*
X0124132Y0198319D01*
X0123884Y0197721D02*
X0137400Y0197721D01*
X0137400Y0197122D02*
X0123636Y0197122D01*
X0123078Y0196524D02*
X0137400Y0196524D01*
X0137400Y0195925D02*
X0122479Y0195925D01*
X0121506Y0195327D02*
X0137400Y0195327D01*
X0137400Y0194728D02*
X0121374Y0194728D01*
X0122424Y0194130D02*
X0137400Y0194130D01*
X0137400Y0193531D02*
X0123023Y0193531D01*
X0123614Y0192933D02*
X0137400Y0192933D01*
X0137400Y0192334D02*
X0123862Y0192334D01*
X0124110Y0191736D02*
X0137400Y0191736D01*
X0137400Y0191137D02*
X0124358Y0191137D01*
X0124400Y0190539D02*
X0137400Y0190539D01*
X0137400Y0189940D02*
X0124400Y0189940D01*
X0124400Y0189341D02*
X0137400Y0189341D01*
X0137400Y0188743D02*
X0124308Y0188743D01*
X0124060Y0188144D02*
X0137400Y0188144D01*
X0137400Y0187546D02*
X0123812Y0187546D01*
X0123501Y0186947D02*
X0137400Y0186947D01*
X0137400Y0186349D02*
X0122903Y0186349D01*
X0122304Y0185750D02*
X0137400Y0185750D01*
X0137400Y0185152D02*
X0121084Y0185152D01*
X0121795Y0184553D02*
X0137400Y0184553D01*
X0137400Y0183955D02*
X0122599Y0183955D01*
X0123198Y0183356D02*
X0137400Y0183356D01*
X0137400Y0182758D02*
X0123686Y0182758D01*
X0123934Y0182159D02*
X0137400Y0182159D01*
X0137400Y0181561D02*
X0124182Y0181561D01*
X0124400Y0180962D02*
X0137400Y0180962D01*
X0137400Y0180364D02*
X0124400Y0180364D01*
X0124400Y0179765D02*
X0137400Y0179765D01*
X0137400Y0179167D02*
X0124400Y0179167D01*
X0124235Y0178568D02*
X0137400Y0178568D01*
X0137400Y0177970D02*
X0123988Y0177970D01*
X0123740Y0177371D02*
X0137400Y0177371D01*
X0137400Y0176773D02*
X0123327Y0176773D01*
X0122728Y0176174D02*
X0137400Y0176174D01*
X0137400Y0175576D02*
X0122107Y0175576D01*
X0122175Y0174379D02*
X0137400Y0174379D01*
X0137400Y0174977D02*
X0120772Y0174977D01*
X0122774Y0173780D02*
X0137400Y0173780D01*
X0137400Y0173182D02*
X0123372Y0173182D01*
X0123758Y0172583D02*
X0137400Y0172583D01*
X0137400Y0171985D02*
X0124006Y0171985D01*
X0124254Y0171386D02*
X0137400Y0171386D01*
X0137400Y0170788D02*
X0124400Y0170788D01*
X0124400Y0170189D02*
X0137400Y0170189D01*
X0137400Y0169591D02*
X0124400Y0169591D01*
X0124400Y0168992D02*
X0137400Y0168992D01*
X0137400Y0168394D02*
X0124163Y0168394D01*
X0123915Y0167795D02*
X0137400Y0167795D01*
X0137400Y0167197D02*
X0123667Y0167197D01*
X0123152Y0166598D02*
X0137400Y0166598D01*
X0137400Y0166000D02*
X0122553Y0166000D01*
X0121685Y0165401D02*
X0137400Y0165401D01*
X0137400Y0164803D02*
X0121194Y0164803D01*
X0122350Y0164204D02*
X0137400Y0164204D01*
X0137400Y0163605D02*
X0122948Y0163605D01*
X0123547Y0163007D02*
X0137400Y0163007D01*
X0137400Y0162408D02*
X0123831Y0162408D01*
X0124079Y0161810D02*
X0137400Y0161810D01*
X0137400Y0161211D02*
X0124327Y0161211D01*
X0124400Y0160613D02*
X0137400Y0160613D01*
X0137400Y0160014D02*
X0124400Y0160014D01*
X0124400Y0159416D02*
X0137400Y0159416D01*
X0137400Y0158817D02*
X0124339Y0158817D01*
X0124091Y0158219D02*
X0137400Y0158219D01*
X0137400Y0157620D02*
X0123843Y0157620D01*
X0123576Y0157022D02*
X0137400Y0157022D01*
X0137400Y0156423D02*
X0122977Y0156423D01*
X0122379Y0155825D02*
X0137400Y0155825D01*
X0137400Y0155226D02*
X0121264Y0155226D01*
X0119200Y0160000D02*
X0099200Y0140000D01*
X0079200Y0140000D01*
X0077669Y0144453D02*
X0050731Y0144453D01*
X0050135Y0144700D02*
X0051862Y0143984D01*
X0053184Y0142662D01*
X0053900Y0140935D01*
X0053900Y0139065D01*
X0053184Y0137338D01*
X0051862Y0136016D01*
X0050135Y0135300D01*
X0048265Y0135300D01*
X0046538Y0136016D01*
X0045216Y0137338D01*
X0044500Y0139065D01*
X0044500Y0140935D01*
X0045216Y0142662D01*
X0046538Y0143984D01*
X0048265Y0144700D01*
X0050135Y0144700D01*
X0050254Y0145611D02*
X0050927Y0145830D01*
X0051559Y0146151D01*
X0052132Y0146568D01*
X0052632Y0147068D01*
X0053049Y0147641D01*
X0053370Y0148273D01*
X0053589Y0148946D01*
X0053700Y0149646D01*
X0053700Y0149700D01*
X0049500Y0149700D01*
X0049500Y0145500D01*
X0049554Y0145500D01*
X0050254Y0145611D01*
X0050375Y0145650D02*
X0077420Y0145650D01*
X0078265Y0145300D02*
X0080135Y0145300D01*
X0081862Y0146016D01*
X0083184Y0147338D01*
X0083900Y0149065D01*
X0083900Y0150935D01*
X0083184Y0152662D01*
X0081862Y0153984D01*
X0080135Y0154700D01*
X0078265Y0154700D01*
X0076538Y0153984D01*
X0075216Y0152662D01*
X0074500Y0150935D01*
X0074500Y0149065D01*
X0075216Y0147338D01*
X0076538Y0146016D01*
X0078265Y0145300D01*
X0076305Y0146249D02*
X0051693Y0146249D01*
X0052411Y0146847D02*
X0075706Y0146847D01*
X0075171Y0147446D02*
X0052907Y0147446D01*
X0053254Y0148044D02*
X0074923Y0148044D01*
X0074675Y0148643D02*
X0053491Y0148643D01*
X0053636Y0149241D02*
X0074500Y0149241D01*
X0074500Y0149840D02*
X0049500Y0149840D01*
X0049500Y0149700D02*
X0049500Y0150300D01*
X0048900Y0150300D01*
X0048900Y0149700D01*
X0044700Y0149700D01*
X0044700Y0149646D01*
X0044811Y0148946D01*
X0045030Y0148273D01*
X0045351Y0147641D01*
X0045768Y0147068D01*
X0046268Y0146568D01*
X0046842Y0146151D01*
X0047473Y0145830D01*
X0048146Y0145611D01*
X0048846Y0145500D01*
X0048900Y0145500D01*
X0048900Y0149700D01*
X0049500Y0149700D01*
X0049200Y0150000D02*
X0019200Y0150000D01*
X0018900Y0149840D02*
X0011585Y0149840D01*
X0011000Y0149254D02*
X0019946Y0158200D01*
X0044858Y0158200D01*
X0045216Y0157338D01*
X0046538Y0156016D01*
X0048265Y0155300D01*
X0050135Y0155300D01*
X0051862Y0156016D01*
X0053184Y0157338D01*
X0053900Y0159065D01*
X0053900Y0160935D01*
X0053184Y0162662D01*
X0051862Y0163984D01*
X0050135Y0164700D01*
X0048265Y0164700D01*
X0046538Y0163984D01*
X0045216Y0162662D01*
X0044858Y0161800D01*
X0018454Y0161800D01*
X0017400Y0160746D01*
X0007400Y0150746D01*
X0007400Y0134254D01*
X0008454Y0133200D01*
X0008454Y0133200D01*
X0011654Y0130000D01*
X0008454Y0126800D01*
X0007400Y0125746D01*
X0007400Y0074254D01*
X0012400Y0069254D01*
X0013454Y0068200D01*
X0018492Y0068200D01*
X0019037Y0066884D01*
X0020585Y0065337D01*
X0021900Y0064792D01*
X0021900Y0063763D01*
X0021176Y0063463D01*
X0019674Y0061961D01*
X0018861Y0059999D01*
X0018861Y0057875D01*
X0019674Y0055913D01*
X0021176Y0054411D01*
X0023138Y0053598D01*
X0025262Y0053598D01*
X0027224Y0054411D01*
X0028726Y0055913D01*
X0029539Y0057875D01*
X0029539Y0059999D01*
X0028726Y0061961D01*
X0027224Y0063463D01*
X0025500Y0064177D01*
X0025500Y0064792D01*
X0026816Y0065337D01*
X0028363Y0066884D01*
X0029200Y0068906D01*
X0029200Y0071094D01*
X0028363Y0073115D01*
X0026816Y0074663D01*
X0026001Y0075000D01*
X0026816Y0075337D01*
X0028363Y0076884D01*
X0029200Y0078906D01*
X0029200Y0081094D01*
X0028363Y0083115D01*
X0026816Y0084663D01*
X0024794Y0085500D01*
X0022606Y0085500D01*
X0020585Y0084663D01*
X0019037Y0083115D01*
X0018200Y0081094D01*
X0018200Y0078906D01*
X0019037Y0076884D01*
X0020585Y0075337D01*
X0021399Y0075000D01*
X0020585Y0074663D01*
X0019037Y0073115D01*
X0018492Y0071800D01*
X0014946Y0071800D01*
X0011000Y0075746D01*
X0011000Y0124254D01*
X0014501Y0127756D01*
X0014792Y0127054D01*
X0016254Y0125592D01*
X0017683Y0125000D01*
X0016254Y0124408D01*
X0014792Y0122946D01*
X0014000Y0121034D01*
X0014000Y0118966D01*
X0014792Y0117054D01*
X0016254Y0115592D01*
X0017683Y0115000D01*
X0016254Y0114408D01*
X0014792Y0112946D01*
X0014000Y0111034D01*
X0014000Y0108966D01*
X0014792Y0107054D01*
X0016254Y0105592D01*
X0017683Y0105000D01*
X0016254Y0104408D01*
X0014792Y0102946D01*
X0014000Y0101034D01*
X0014000Y0098966D01*
X0011000Y0098966D01*
X0011000Y0098368D02*
X0014248Y0098368D01*
X0014000Y0098966D02*
X0014792Y0097054D01*
X0016254Y0095592D01*
X0018166Y0094800D01*
X0020234Y0094800D01*
X0022146Y0095592D01*
X0023608Y0097054D01*
X0024400Y0098966D01*
X0032400Y0098966D01*
X0032400Y0098368D02*
X0024152Y0098368D01*
X0024400Y0098966D02*
X0024400Y0101034D01*
X0023608Y0102946D01*
X0022146Y0104408D01*
X0020717Y0105000D01*
X0022146Y0105592D01*
X0023608Y0107054D01*
X0024400Y0108966D01*
X0024400Y0111034D01*
X0023608Y0112946D01*
X0022146Y0114408D01*
X0020717Y0115000D01*
X0022146Y0115592D01*
X0023608Y0117054D01*
X0024400Y0118966D01*
X0024400Y0121034D01*
X0023608Y0122946D01*
X0022146Y0124408D01*
X0020717Y0125000D01*
X0022146Y0125592D01*
X0023608Y0127054D01*
X0024400Y0128966D01*
X0024400Y0131034D01*
X0023608Y0132946D01*
X0022146Y0134408D01*
X0020717Y0135000D01*
X0022146Y0135592D01*
X0023608Y0137054D01*
X0024400Y0138966D01*
X0024400Y0141034D01*
X0023608Y0142946D01*
X0022146Y0144408D01*
X0020398Y0145132D01*
X0021119Y0145366D01*
X0021821Y0145724D01*
X0022457Y0146186D01*
X0023014Y0146743D01*
X0023476Y0147379D01*
X0023834Y0148081D01*
X0024077Y0148829D01*
X0024200Y0149606D01*
X0024200Y0149700D01*
X0019500Y0149700D01*
X0019500Y0150300D01*
X0018900Y0150300D01*
X0018900Y0149700D01*
X0014200Y0149700D01*
X0014200Y0149606D01*
X0014323Y0148829D01*
X0014566Y0148081D01*
X0014924Y0147379D01*
X0015386Y0146743D01*
X0015943Y0146186D01*
X0016579Y0145724D01*
X0017281Y0145366D01*
X0018002Y0145132D01*
X0016254Y0144408D01*
X0014792Y0142946D01*
X0014000Y0141034D01*
X0014000Y0138966D01*
X0014792Y0137054D01*
X0016254Y0135592D01*
X0017683Y0135000D01*
X0016254Y0134408D01*
X0014792Y0132946D01*
X0014501Y0132244D01*
X0011000Y0135746D01*
X0011000Y0149254D01*
X0011000Y0149241D02*
X0014258Y0149241D01*
X0014384Y0148643D02*
X0011000Y0148643D01*
X0011000Y0148044D02*
X0014585Y0148044D01*
X0014890Y0147446D02*
X0011000Y0147446D01*
X0011000Y0146847D02*
X0015310Y0146847D01*
X0015880Y0146249D02*
X0011000Y0146249D01*
X0011000Y0145650D02*
X0016724Y0145650D01*
X0017808Y0145052D02*
X0011000Y0145052D01*
X0011000Y0144453D02*
X0016363Y0144453D01*
X0015701Y0143855D02*
X0011000Y0143855D01*
X0011000Y0143256D02*
X0015102Y0143256D01*
X0014672Y0142658D02*
X0011000Y0142658D01*
X0011000Y0142059D02*
X0014425Y0142059D01*
X0014177Y0141461D02*
X0011000Y0141461D01*
X0011000Y0140862D02*
X0014000Y0140862D01*
X0014000Y0140264D02*
X0011000Y0140264D01*
X0011000Y0139665D02*
X0014000Y0139665D01*
X0014000Y0139067D02*
X0011000Y0139067D01*
X0011000Y0138468D02*
X0014206Y0138468D01*
X0014454Y0137870D02*
X0011000Y0137870D01*
X0011000Y0137271D02*
X0014702Y0137271D01*
X0015174Y0136672D02*
X0011000Y0136672D01*
X0011000Y0136074D02*
X0015772Y0136074D01*
X0016535Y0135475D02*
X0011270Y0135475D01*
X0011869Y0134877D02*
X0017386Y0134877D01*
X0016125Y0134278D02*
X0012467Y0134278D01*
X0013066Y0133680D02*
X0015526Y0133680D01*
X0014928Y0133081D02*
X0013664Y0133081D01*
X0014263Y0132483D02*
X0014600Y0132483D01*
X0014200Y0130000D02*
X0009200Y0125000D01*
X0009200Y0075000D01*
X0014200Y0070000D01*
X0023700Y0070000D01*
X0023700Y0059437D01*
X0024200Y0058937D01*
X0028088Y0055275D02*
X0067400Y0055275D01*
X0067400Y0055873D02*
X0028686Y0055873D01*
X0028957Y0056472D02*
X0067400Y0056472D01*
X0067400Y0057070D02*
X0029205Y0057070D01*
X0029453Y0057669D02*
X0067400Y0057669D01*
X0067400Y0058268D02*
X0029539Y0058268D01*
X0029539Y0058866D02*
X0067400Y0058866D01*
X0067400Y0059465D02*
X0029539Y0059465D01*
X0029512Y0060063D02*
X0067400Y0060063D01*
X0067400Y0060662D02*
X0029264Y0060662D01*
X0029016Y0061260D02*
X0067400Y0061260D01*
X0067400Y0061859D02*
X0028768Y0061859D01*
X0028230Y0062457D02*
X0067400Y0062457D01*
X0067400Y0063056D02*
X0027631Y0063056D01*
X0026762Y0063654D02*
X0067400Y0063654D01*
X0067400Y0064253D02*
X0025500Y0064253D01*
X0025642Y0064851D02*
X0033395Y0064851D01*
X0033459Y0064830D02*
X0034283Y0064700D01*
X0034400Y0064700D01*
X0034400Y0069700D01*
X0029400Y0069700D01*
X0029400Y0069583D01*
X0029531Y0068759D01*
X0029788Y0067966D01*
X0030167Y0067222D01*
X0030657Y0066547D01*
X0031247Y0065957D01*
X0031922Y0065467D01*
X0032666Y0065088D01*
X0033459Y0064830D01*
X0034400Y0064851D02*
X0035000Y0064851D01*
X0035000Y0064700D02*
X0035117Y0064700D01*
X0035941Y0064830D01*
X0036735Y0065088D01*
X0037478Y0065467D01*
X0038153Y0065957D01*
X0038743Y0066547D01*
X0039233Y0067222D01*
X0039612Y0067966D01*
X0039870Y0068759D01*
X0040000Y0069583D01*
X0040000Y0069700D01*
X0035000Y0069700D01*
X0035000Y0064700D01*
X0035000Y0065450D02*
X0034400Y0065450D01*
X0034400Y0066048D02*
X0035000Y0066048D01*
X0035000Y0066647D02*
X0034400Y0066647D01*
X0034400Y0067245D02*
X0035000Y0067245D01*
X0035000Y0067844D02*
X0034400Y0067844D01*
X0034400Y0068442D02*
X0035000Y0068442D01*
X0035000Y0069041D02*
X0034400Y0069041D01*
X0034400Y0069639D02*
X0035000Y0069639D01*
X0035000Y0069700D02*
X0034400Y0069700D01*
X0034400Y0070300D01*
X0029400Y0070300D01*
X0029400Y0070417D01*
X0029531Y0071241D01*
X0029788Y0072034D01*
X0030167Y0072778D01*
X0030657Y0073453D01*
X0031247Y0074043D01*
X0031922Y0074533D01*
X0032642Y0074899D01*
X0031585Y0075337D01*
X0030037Y0076884D01*
X0029200Y0078906D01*
X0029200Y0081094D01*
X0030037Y0083115D01*
X0031585Y0084663D01*
X0032400Y0085000D01*
X0032400Y0127997D01*
X0031920Y0128477D01*
X0031511Y0129465D01*
X0031511Y0130535D01*
X0031920Y0131523D01*
X0032677Y0132280D01*
X0033665Y0132689D01*
X0034735Y0132689D01*
X0035723Y0132280D01*
X0036480Y0131523D01*
X0036889Y0130535D01*
X0036889Y0129465D01*
X0036480Y0128477D01*
X0036000Y0127997D01*
X0036000Y0085415D01*
X0037816Y0084663D01*
X0039363Y0083115D01*
X0040200Y0081094D01*
X0040200Y0078906D01*
X0039363Y0076884D01*
X0037816Y0075337D01*
X0036758Y0074899D01*
X0037478Y0074533D01*
X0038153Y0074043D01*
X0038743Y0073453D01*
X0039233Y0072778D01*
X0039612Y0072034D01*
X0039870Y0071241D01*
X0040000Y0070417D01*
X0040000Y0070300D01*
X0035000Y0070300D01*
X0035000Y0069700D01*
X0034700Y0070000D02*
X0043098Y0061602D01*
X0043098Y0047126D01*
X0043098Y0046102D01*
X0064200Y0025000D01*
X0074200Y0015000D01*
X0099200Y0015000D01*
X0129200Y0045000D01*
X0134200Y0050000D01*
X0134200Y0070000D01*
X0129200Y0075000D01*
X0134200Y0080000D01*
X0134200Y0105000D01*
X0129200Y0110000D01*
X0134200Y0115000D01*
X0134200Y0225000D01*
X0129200Y0230000D01*
X0119200Y0230000D01*
X0104200Y0230000D01*
X0099200Y0225000D01*
X0099200Y0165000D01*
X0094200Y0160000D01*
X0079200Y0160000D01*
X0069200Y0150000D01*
X0049200Y0150000D01*
X0048900Y0149840D02*
X0019500Y0149840D01*
X0019500Y0150300D02*
X0024200Y0150300D01*
X0024200Y0150394D01*
X0024077Y0151171D01*
X0023834Y0151919D01*
X0023476Y0152621D01*
X0023014Y0153257D01*
X0022457Y0153814D01*
X0021821Y0154276D01*
X0021119Y0154634D01*
X0020371Y0154877D01*
X0019594Y0155000D01*
X0019500Y0155000D01*
X0019500Y0150300D01*
X0019500Y0150438D02*
X0018900Y0150438D01*
X0018900Y0150300D02*
X0018900Y0155000D01*
X0018807Y0155000D01*
X0018029Y0154877D01*
X0017281Y0154634D01*
X0016579Y0154276D01*
X0015943Y0153814D01*
X0015386Y0153257D01*
X0014924Y0152621D01*
X0014566Y0151919D01*
X0014323Y0151171D01*
X0014200Y0150394D01*
X0014200Y0150300D01*
X0018900Y0150300D01*
X0018900Y0151037D02*
X0019500Y0151037D01*
X0019500Y0151635D02*
X0018900Y0151635D01*
X0018900Y0152234D02*
X0019500Y0152234D01*
X0019500Y0152832D02*
X0018900Y0152832D01*
X0018900Y0153431D02*
X0019500Y0153431D01*
X0019500Y0154029D02*
X0018900Y0154029D01*
X0018900Y0154628D02*
X0019500Y0154628D01*
X0017269Y0154628D02*
X0016373Y0154628D01*
X0016239Y0154029D02*
X0015775Y0154029D01*
X0015560Y0153431D02*
X0015176Y0153431D01*
X0015077Y0152832D02*
X0014578Y0152832D01*
X0014727Y0152234D02*
X0013979Y0152234D01*
X0014474Y0151635D02*
X0013381Y0151635D01*
X0012782Y0151037D02*
X0014302Y0151037D01*
X0014207Y0150438D02*
X0012184Y0150438D01*
X0010085Y0153431D02*
X0006000Y0153431D01*
X0006000Y0154029D02*
X0010684Y0154029D01*
X0011282Y0154628D02*
X0006000Y0154628D01*
X0006000Y0155226D02*
X0011881Y0155226D01*
X0012479Y0155825D02*
X0006000Y0155825D01*
X0006000Y0156423D02*
X0013078Y0156423D01*
X0013676Y0157022D02*
X0006000Y0157022D01*
X0006000Y0157620D02*
X0014275Y0157620D01*
X0014873Y0158219D02*
X0006000Y0158219D01*
X0006000Y0158817D02*
X0015472Y0158817D01*
X0016070Y0159416D02*
X0006000Y0159416D01*
X0006000Y0160014D02*
X0016669Y0160014D01*
X0017267Y0160613D02*
X0006000Y0160613D01*
X0006000Y0161211D02*
X0017866Y0161211D01*
X0019200Y0160000D02*
X0049200Y0160000D01*
X0052270Y0156423D02*
X0076467Y0156423D01*
X0076268Y0156568D02*
X0076842Y0156151D01*
X0077473Y0155830D01*
X0078146Y0155611D01*
X0078846Y0155500D01*
X0078900Y0155500D01*
X0078900Y0159700D01*
X0074700Y0159700D01*
X0074700Y0159646D01*
X0074811Y0158946D01*
X0075030Y0158273D01*
X0075351Y0157641D01*
X0075768Y0157068D01*
X0076268Y0156568D01*
X0075814Y0157022D02*
X0052869Y0157022D01*
X0053302Y0157620D02*
X0075367Y0157620D01*
X0075057Y0158219D02*
X0053550Y0158219D01*
X0053797Y0158817D02*
X0074853Y0158817D01*
X0074736Y0159416D02*
X0053900Y0159416D01*
X0053900Y0160014D02*
X0078900Y0160014D01*
X0078900Y0160300D02*
X0078900Y0159700D01*
X0079500Y0159700D01*
X0079500Y0155500D01*
X0079554Y0155500D01*
X0080254Y0155611D01*
X0080927Y0155830D01*
X0081559Y0156151D01*
X0082132Y0156568D01*
X0082632Y0157068D01*
X0083049Y0157641D01*
X0083370Y0158273D01*
X0083589Y0158946D01*
X0083700Y0159646D01*
X0083700Y0159700D01*
X0079500Y0159700D01*
X0079500Y0160300D01*
X0078900Y0160300D01*
X0074700Y0160300D01*
X0074700Y0160354D01*
X0074811Y0161054D01*
X0075030Y0161727D01*
X0075351Y0162359D01*
X0075768Y0162932D01*
X0076268Y0163432D01*
X0076842Y0163849D01*
X0077473Y0164170D01*
X0078146Y0164389D01*
X0078846Y0164500D01*
X0078900Y0164500D01*
X0078900Y0160300D01*
X0078900Y0160613D02*
X0079500Y0160613D01*
X0079500Y0160300D02*
X0079500Y0164500D01*
X0079554Y0164500D01*
X0080254Y0164389D01*
X0080927Y0164170D01*
X0081559Y0163849D01*
X0082132Y0163432D01*
X0082632Y0162932D01*
X0083049Y0162359D01*
X0083370Y0161727D01*
X0083589Y0161054D01*
X0083700Y0160354D01*
X0083700Y0160300D01*
X0079500Y0160300D01*
X0079500Y0160014D02*
X0114000Y0160014D01*
X0114000Y0159416D02*
X0083664Y0159416D01*
X0083547Y0158817D02*
X0114061Y0158817D01*
X0114309Y0158219D02*
X0083343Y0158219D01*
X0083033Y0157620D02*
X0114275Y0157620D01*
X0113676Y0157022D02*
X0082586Y0157022D01*
X0081933Y0156423D02*
X0113078Y0156423D01*
X0112479Y0155825D02*
X0080913Y0155825D01*
X0080309Y0154628D02*
X0111282Y0154628D01*
X0110684Y0154029D02*
X0081754Y0154029D01*
X0082416Y0153431D02*
X0110085Y0153431D01*
X0109487Y0152832D02*
X0083015Y0152832D01*
X0083362Y0152234D02*
X0108888Y0152234D01*
X0108290Y0151635D02*
X0083610Y0151635D01*
X0083858Y0151037D02*
X0107691Y0151037D01*
X0107093Y0150438D02*
X0083900Y0150438D01*
X0083900Y0149840D02*
X0106494Y0149840D01*
X0105896Y0149241D02*
X0083900Y0149241D01*
X0083725Y0148643D02*
X0105297Y0148643D01*
X0104699Y0148044D02*
X0083477Y0148044D01*
X0083229Y0147446D02*
X0104100Y0147446D01*
X0103502Y0146847D02*
X0082694Y0146847D01*
X0082096Y0146249D02*
X0102903Y0146249D01*
X0102305Y0145650D02*
X0080980Y0145650D01*
X0080731Y0144453D02*
X0101108Y0144453D01*
X0101706Y0145052D02*
X0020593Y0145052D01*
X0021676Y0145650D02*
X0048025Y0145650D01*
X0048900Y0145650D02*
X0049500Y0145650D01*
X0049500Y0146249D02*
X0048900Y0146249D01*
X0048900Y0146847D02*
X0049500Y0146847D01*
X0049500Y0147446D02*
X0048900Y0147446D01*
X0048900Y0148044D02*
X0049500Y0148044D01*
X0049500Y0148643D02*
X0048900Y0148643D01*
X0048900Y0149241D02*
X0049500Y0149241D01*
X0049500Y0150300D02*
X0053700Y0150300D01*
X0053700Y0150354D01*
X0053589Y0151054D01*
X0053370Y0151727D01*
X0053049Y0152359D01*
X0052632Y0152932D01*
X0052132Y0153432D01*
X0051559Y0153849D01*
X0050927Y0154170D01*
X0050254Y0154389D01*
X0049554Y0154500D01*
X0049500Y0154500D01*
X0049500Y0150300D01*
X0049500Y0150438D02*
X0048900Y0150438D01*
X0048900Y0150300D02*
X0048900Y0154500D01*
X0048846Y0154500D01*
X0048146Y0154389D01*
X0047473Y0154170D01*
X0046842Y0153849D01*
X0046268Y0153432D01*
X0045768Y0152932D01*
X0045351Y0152359D01*
X0045030Y0151727D01*
X0044811Y0151054D01*
X0044700Y0150354D01*
X0044700Y0150300D01*
X0048900Y0150300D01*
X0048900Y0151037D02*
X0049500Y0151037D01*
X0049500Y0151635D02*
X0048900Y0151635D01*
X0048900Y0152234D02*
X0049500Y0152234D01*
X0049500Y0152832D02*
X0048900Y0152832D01*
X0048900Y0153431D02*
X0049500Y0153431D01*
X0049500Y0154029D02*
X0048900Y0154029D01*
X0047196Y0154029D02*
X0022161Y0154029D01*
X0022840Y0153431D02*
X0046267Y0153431D01*
X0045696Y0152832D02*
X0023323Y0152832D01*
X0023673Y0152234D02*
X0045288Y0152234D01*
X0045000Y0151635D02*
X0023926Y0151635D01*
X0024098Y0151037D02*
X0044808Y0151037D01*
X0044713Y0150438D02*
X0024193Y0150438D01*
X0024142Y0149241D02*
X0044764Y0149241D01*
X0044909Y0148643D02*
X0024016Y0148643D01*
X0023815Y0148044D02*
X0045146Y0148044D01*
X0045494Y0147446D02*
X0023510Y0147446D01*
X0023090Y0146847D02*
X0045989Y0146847D01*
X0046707Y0146249D02*
X0022520Y0146249D01*
X0022037Y0144453D02*
X0047669Y0144453D01*
X0046408Y0143855D02*
X0022699Y0143855D01*
X0023298Y0143256D02*
X0045809Y0143256D01*
X0045214Y0142658D02*
X0023728Y0142658D01*
X0023976Y0142059D02*
X0044966Y0142059D01*
X0044718Y0141461D02*
X0024223Y0141461D01*
X0024400Y0140862D02*
X0044500Y0140862D01*
X0044500Y0140264D02*
X0024400Y0140264D01*
X0024400Y0139665D02*
X0044500Y0139665D01*
X0044500Y0139067D02*
X0024400Y0139067D01*
X0024194Y0138468D02*
X0044747Y0138468D01*
X0044995Y0137870D02*
X0023946Y0137870D01*
X0023698Y0137271D02*
X0045282Y0137271D01*
X0045881Y0136672D02*
X0023226Y0136672D01*
X0022628Y0136074D02*
X0046479Y0136074D01*
X0047842Y0135475D02*
X0021865Y0135475D01*
X0021014Y0134877D02*
X0137400Y0134877D01*
X0137400Y0135475D02*
X0080559Y0135475D01*
X0080135Y0134700D02*
X0078265Y0134700D01*
X0076538Y0133984D01*
X0075216Y0132662D01*
X0074500Y0130935D01*
X0074500Y0129065D01*
X0075216Y0127338D01*
X0076538Y0126016D01*
X0078265Y0125300D01*
X0080135Y0125300D01*
X0080997Y0125657D01*
X0084854Y0121800D01*
X0083542Y0121800D01*
X0083184Y0122662D01*
X0081862Y0123984D01*
X0080135Y0124700D01*
X0078265Y0124700D01*
X0076538Y0123984D01*
X0075216Y0122662D01*
X0074500Y0120935D01*
X0074500Y0119065D01*
X0075216Y0117338D01*
X0076538Y0116016D01*
X0078265Y0115300D01*
X0080135Y0115300D01*
X0081862Y0116016D01*
X0083184Y0117338D01*
X0083516Y0118138D01*
X0087400Y0114254D01*
X0087400Y0060746D01*
X0076380Y0049725D01*
X0075234Y0050200D01*
X0073166Y0050200D01*
X0071254Y0049408D01*
X0071000Y0049154D01*
X0071000Y0099254D01*
X0077403Y0105657D01*
X0078265Y0105300D01*
X0080135Y0105300D01*
X0081862Y0106016D01*
X0083184Y0107338D01*
X0083900Y0109065D01*
X0083900Y0110935D01*
X0083184Y0112662D01*
X0081862Y0113984D01*
X0080135Y0114700D01*
X0078265Y0114700D01*
X0076538Y0113984D01*
X0075216Y0112662D01*
X0074500Y0110935D01*
X0074500Y0109065D01*
X0074857Y0108203D01*
X0068454Y0101800D01*
X0067400Y0100746D01*
X0067400Y0049154D01*
X0067146Y0049408D01*
X0065234Y0050200D01*
X0063166Y0050200D01*
X0061254Y0049408D01*
X0059792Y0047946D01*
X0059317Y0046800D01*
X0057915Y0046800D01*
X0055815Y0048900D01*
X0052585Y0048900D01*
X0050300Y0046615D01*
X0050300Y0043385D01*
X0052585Y0041100D01*
X0055815Y0041100D01*
X0057915Y0043200D01*
X0059317Y0043200D01*
X0059792Y0042054D01*
X0061254Y0040592D01*
X0062683Y0040000D01*
X0061254Y0039408D01*
X0059792Y0037946D01*
X0059000Y0036034D01*
X0059000Y0033966D01*
X0059792Y0032054D01*
X0061254Y0030592D01*
X0063002Y0029868D01*
X0062281Y0029634D01*
X0061579Y0029276D01*
X0060943Y0028814D01*
X0060386Y0028257D01*
X0059924Y0027621D01*
X0059566Y0026919D01*
X0059323Y0026171D01*
X0059200Y0025394D01*
X0059200Y0025300D01*
X0063900Y0025300D01*
X0063900Y0024700D01*
X0059200Y0024700D01*
X0059200Y0024606D01*
X0059323Y0023829D01*
X0059566Y0023081D01*
X0059924Y0022379D01*
X0060386Y0021743D01*
X0060943Y0021186D01*
X0061579Y0020724D01*
X0062281Y0020366D01*
X0063029Y0020123D01*
X0063807Y0020000D01*
X0063900Y0020000D01*
X0063900Y0024700D01*
X0064500Y0024700D01*
X0064500Y0020000D01*
X0064594Y0020000D01*
X0065371Y0020123D01*
X0066119Y0020366D01*
X0066821Y0020724D01*
X0067457Y0021186D01*
X0068014Y0021743D01*
X0068476Y0022379D01*
X0068834Y0023081D01*
X0069068Y0023802D01*
X0069792Y0022054D01*
X0071254Y0020592D01*
X0073166Y0019800D01*
X0075234Y0019800D01*
X0077146Y0020592D01*
X0078608Y0022054D01*
X0079400Y0023966D01*
X0079400Y0026034D01*
X0078608Y0027946D01*
X0077146Y0029408D01*
X0075717Y0030000D01*
X0077146Y0030592D01*
X0078608Y0032054D01*
X0079083Y0033200D01*
X0089946Y0033200D01*
X0094946Y0038200D01*
X0096000Y0039254D01*
X0096000Y0115746D01*
X0083543Y0128203D01*
X0083900Y0129065D01*
X0083900Y0130935D01*
X0083184Y0132662D01*
X0081862Y0133984D01*
X0080135Y0134700D01*
X0081153Y0134278D02*
X0137400Y0134278D01*
X0137400Y0133680D02*
X0131036Y0133680D01*
X0130815Y0133900D02*
X0127585Y0133900D01*
X0125300Y0131615D01*
X0125300Y0128385D01*
X0127585Y0126100D01*
X0130815Y0126100D01*
X0133100Y0128385D01*
X0133100Y0131615D01*
X0130815Y0133900D01*
X0131634Y0133081D02*
X0137400Y0133081D01*
X0137400Y0132483D02*
X0132233Y0132483D01*
X0132831Y0131884D02*
X0137400Y0131884D01*
X0137400Y0131286D02*
X0133100Y0131286D01*
X0133100Y0130687D02*
X0137400Y0130687D01*
X0137400Y0130089D02*
X0133100Y0130089D01*
X0133100Y0129490D02*
X0137400Y0129490D01*
X0137400Y0128892D02*
X0133100Y0128892D01*
X0133009Y0128293D02*
X0137400Y0128293D01*
X0137400Y0127695D02*
X0132410Y0127695D01*
X0131812Y0127096D02*
X0137400Y0127096D01*
X0137400Y0126498D02*
X0131213Y0126498D01*
X0127187Y0126498D02*
X0085248Y0126498D01*
X0084649Y0127096D02*
X0126588Y0127096D01*
X0125990Y0127695D02*
X0084051Y0127695D01*
X0083580Y0128293D02*
X0125391Y0128293D01*
X0125300Y0128892D02*
X0083828Y0128892D01*
X0083900Y0129490D02*
X0125300Y0129490D01*
X0125300Y0130089D02*
X0083900Y0130089D01*
X0083900Y0130687D02*
X0125300Y0130687D01*
X0125300Y0131286D02*
X0083755Y0131286D01*
X0083507Y0131884D02*
X0125569Y0131884D01*
X0126168Y0132483D02*
X0083259Y0132483D01*
X0082765Y0133081D02*
X0126766Y0133081D01*
X0127365Y0133680D02*
X0082167Y0133680D01*
X0081921Y0136074D02*
X0137400Y0136074D01*
X0137400Y0136672D02*
X0082519Y0136672D01*
X0083118Y0137271D02*
X0137400Y0137271D01*
X0137400Y0137870D02*
X0083405Y0137870D01*
X0083434Y0142059D02*
X0098714Y0142059D01*
X0099312Y0142658D02*
X0083186Y0142658D01*
X0082591Y0143256D02*
X0099911Y0143256D01*
X0100509Y0143855D02*
X0081992Y0143855D01*
X0077842Y0135475D02*
X0050559Y0135475D01*
X0050135Y0134700D02*
X0048265Y0134700D01*
X0046538Y0133984D01*
X0045216Y0132662D01*
X0044500Y0130935D01*
X0044500Y0129065D01*
X0045216Y0127338D01*
X0046538Y0126016D01*
X0048265Y0125300D01*
X0050135Y0125300D01*
X0051862Y0126016D01*
X0053184Y0127338D01*
X0053900Y0129065D01*
X0053900Y0130935D01*
X0053184Y0132662D01*
X0051862Y0133984D01*
X0050135Y0134700D01*
X0051153Y0134278D02*
X0077247Y0134278D01*
X0076233Y0133680D02*
X0052167Y0133680D01*
X0052765Y0133081D02*
X0075635Y0133081D01*
X0075141Y0132483D02*
X0053259Y0132483D01*
X0053507Y0131884D02*
X0074893Y0131884D01*
X0074645Y0131286D02*
X0053755Y0131286D01*
X0053900Y0130687D02*
X0074500Y0130687D01*
X0074500Y0130089D02*
X0053900Y0130089D01*
X0053900Y0129490D02*
X0074500Y0129490D01*
X0074572Y0128892D02*
X0053828Y0128892D01*
X0053580Y0128293D02*
X0074820Y0128293D01*
X0075068Y0127695D02*
X0053332Y0127695D01*
X0052943Y0127096D02*
X0075457Y0127096D01*
X0076055Y0126498D02*
X0052345Y0126498D01*
X0051582Y0125899D02*
X0076818Y0125899D01*
X0078263Y0125301D02*
X0050137Y0125301D01*
X0050135Y0124700D02*
X0048265Y0124700D01*
X0046538Y0123984D01*
X0045216Y0122662D01*
X0044500Y0120935D01*
X0044500Y0119065D01*
X0045216Y0117338D01*
X0046538Y0116016D01*
X0048265Y0115300D01*
X0050135Y0115300D01*
X0051862Y0116016D01*
X0053184Y0117338D01*
X0053900Y0119065D01*
X0053900Y0120935D01*
X0053184Y0122662D01*
X0051862Y0123984D01*
X0050135Y0124700D01*
X0051574Y0124104D02*
X0076826Y0124104D01*
X0076058Y0123505D02*
X0052342Y0123505D01*
X0052940Y0122907D02*
X0075460Y0122907D01*
X0075069Y0122308D02*
X0053331Y0122308D01*
X0053579Y0121710D02*
X0074821Y0121710D01*
X0074573Y0121111D02*
X0053827Y0121111D01*
X0053900Y0120513D02*
X0074500Y0120513D01*
X0074500Y0119914D02*
X0053900Y0119914D01*
X0053900Y0119316D02*
X0074500Y0119316D01*
X0074644Y0118717D02*
X0053756Y0118717D01*
X0053508Y0118119D02*
X0074892Y0118119D01*
X0075140Y0117520D02*
X0053260Y0117520D01*
X0052768Y0116922D02*
X0075632Y0116922D01*
X0076230Y0116323D02*
X0052170Y0116323D01*
X0051160Y0115725D02*
X0077240Y0115725D01*
X0077849Y0114528D02*
X0050551Y0114528D01*
X0050135Y0114700D02*
X0048265Y0114700D01*
X0046538Y0113984D01*
X0045216Y0112662D01*
X0044500Y0110935D01*
X0044500Y0109065D01*
X0045216Y0107338D01*
X0046538Y0106016D01*
X0048265Y0105300D01*
X0050135Y0105300D01*
X0051862Y0106016D01*
X0053184Y0107338D01*
X0053900Y0109065D01*
X0053900Y0110935D01*
X0053184Y0112662D01*
X0051862Y0113984D01*
X0050135Y0114700D01*
X0051918Y0113929D02*
X0076482Y0113929D01*
X0075884Y0113331D02*
X0052516Y0113331D01*
X0053115Y0112732D02*
X0075285Y0112732D01*
X0074997Y0112134D02*
X0053404Y0112134D01*
X0053651Y0111535D02*
X0074749Y0111535D01*
X0074501Y0110937D02*
X0053899Y0110937D01*
X0053900Y0110338D02*
X0074500Y0110338D01*
X0074500Y0109739D02*
X0053900Y0109739D01*
X0053900Y0109141D02*
X0074500Y0109141D01*
X0074717Y0108542D02*
X0053684Y0108542D01*
X0053436Y0107944D02*
X0074598Y0107944D01*
X0074000Y0107345D02*
X0053188Y0107345D01*
X0052594Y0106747D02*
X0073401Y0106747D01*
X0072803Y0106148D02*
X0051995Y0106148D01*
X0050738Y0105550D02*
X0072204Y0105550D01*
X0071606Y0104951D02*
X0036000Y0104951D01*
X0036000Y0104353D02*
X0047427Y0104353D01*
X0048265Y0104700D02*
X0046538Y0103984D01*
X0045216Y0102662D01*
X0044500Y0100935D01*
X0044500Y0099065D01*
X0045216Y0097338D01*
X0046538Y0096016D01*
X0048265Y0095300D01*
X0050135Y0095300D01*
X0051862Y0096016D01*
X0053184Y0097338D01*
X0053900Y0099065D01*
X0053900Y0100935D01*
X0053184Y0102662D01*
X0051862Y0103984D01*
X0050135Y0104700D01*
X0048265Y0104700D01*
X0047662Y0105550D02*
X0036000Y0105550D01*
X0036000Y0106148D02*
X0046405Y0106148D01*
X0045806Y0106747D02*
X0036000Y0106747D01*
X0036000Y0107345D02*
X0045212Y0107345D01*
X0044964Y0107944D02*
X0036000Y0107944D01*
X0036000Y0108542D02*
X0044717Y0108542D01*
X0044500Y0109141D02*
X0036000Y0109141D01*
X0036000Y0109739D02*
X0044500Y0109739D01*
X0044500Y0110338D02*
X0036000Y0110338D01*
X0036000Y0110937D02*
X0044501Y0110937D01*
X0044749Y0111535D02*
X0036000Y0111535D01*
X0036000Y0112134D02*
X0044997Y0112134D01*
X0045285Y0112732D02*
X0036000Y0112732D01*
X0036000Y0113331D02*
X0045884Y0113331D01*
X0046482Y0113929D02*
X0036000Y0113929D01*
X0036000Y0114528D02*
X0047849Y0114528D01*
X0047240Y0115725D02*
X0036000Y0115725D01*
X0036000Y0116323D02*
X0046230Y0116323D01*
X0045632Y0116922D02*
X0036000Y0116922D01*
X0036000Y0117520D02*
X0045140Y0117520D01*
X0044892Y0118119D02*
X0036000Y0118119D01*
X0036000Y0118717D02*
X0044644Y0118717D01*
X0044500Y0119316D02*
X0036000Y0119316D01*
X0036000Y0119914D02*
X0044500Y0119914D01*
X0044500Y0120513D02*
X0036000Y0120513D01*
X0036000Y0121111D02*
X0044573Y0121111D01*
X0044821Y0121710D02*
X0036000Y0121710D01*
X0036000Y0122308D02*
X0045069Y0122308D01*
X0045460Y0122907D02*
X0036000Y0122907D01*
X0036000Y0123505D02*
X0046058Y0123505D01*
X0046826Y0124104D02*
X0036000Y0124104D01*
X0036000Y0124702D02*
X0081952Y0124702D01*
X0081574Y0124104D02*
X0082551Y0124104D01*
X0082342Y0123505D02*
X0083149Y0123505D01*
X0082940Y0122907D02*
X0083748Y0122907D01*
X0083331Y0122308D02*
X0084346Y0122308D01*
X0084200Y0120000D02*
X0089200Y0115000D01*
X0089200Y0060000D01*
X0074200Y0045000D01*
X0072413Y0049888D02*
X0071000Y0049888D01*
X0071000Y0049290D02*
X0071136Y0049290D01*
X0071000Y0050487D02*
X0077141Y0050487D01*
X0076543Y0049888D02*
X0075987Y0049888D01*
X0077740Y0051085D02*
X0071000Y0051085D01*
X0071000Y0051684D02*
X0078338Y0051684D01*
X0078937Y0052282D02*
X0071000Y0052282D01*
X0071000Y0052881D02*
X0079535Y0052881D01*
X0080134Y0053479D02*
X0071000Y0053479D01*
X0071000Y0054078D02*
X0080732Y0054078D01*
X0081331Y0054676D02*
X0071000Y0054676D01*
X0071000Y0055275D02*
X0081929Y0055275D01*
X0082528Y0055873D02*
X0071000Y0055873D01*
X0071000Y0056472D02*
X0083126Y0056472D01*
X0083725Y0057070D02*
X0071000Y0057070D01*
X0071000Y0057669D02*
X0084323Y0057669D01*
X0084922Y0058268D02*
X0071000Y0058268D01*
X0071000Y0058866D02*
X0085520Y0058866D01*
X0086119Y0059465D02*
X0071000Y0059465D01*
X0071000Y0060063D02*
X0086717Y0060063D01*
X0087316Y0060662D02*
X0071000Y0060662D01*
X0071000Y0061260D02*
X0087400Y0061260D01*
X0087400Y0061859D02*
X0071000Y0061859D01*
X0071000Y0062457D02*
X0087400Y0062457D01*
X0087400Y0063056D02*
X0071000Y0063056D01*
X0071000Y0063654D02*
X0087400Y0063654D01*
X0087400Y0064253D02*
X0071000Y0064253D01*
X0071000Y0064851D02*
X0087400Y0064851D01*
X0087400Y0065450D02*
X0071000Y0065450D01*
X0071000Y0066048D02*
X0087400Y0066048D01*
X0087400Y0066647D02*
X0071000Y0066647D01*
X0071000Y0067245D02*
X0087400Y0067245D01*
X0087400Y0067844D02*
X0071000Y0067844D01*
X0071000Y0068442D02*
X0087400Y0068442D01*
X0087400Y0069041D02*
X0071000Y0069041D01*
X0071000Y0069639D02*
X0087400Y0069639D01*
X0087400Y0070238D02*
X0071000Y0070238D01*
X0071000Y0070836D02*
X0087400Y0070836D01*
X0087400Y0071435D02*
X0071000Y0071435D01*
X0071000Y0072033D02*
X0087400Y0072033D01*
X0087400Y0072632D02*
X0071000Y0072632D01*
X0071000Y0073230D02*
X0087400Y0073230D01*
X0087400Y0073829D02*
X0071000Y0073829D01*
X0071000Y0074427D02*
X0087400Y0074427D01*
X0087400Y0075026D02*
X0071000Y0075026D01*
X0071000Y0075624D02*
X0087400Y0075624D01*
X0087400Y0076223D02*
X0071000Y0076223D01*
X0071000Y0076821D02*
X0087400Y0076821D01*
X0087400Y0077420D02*
X0071000Y0077420D01*
X0071000Y0078018D02*
X0087400Y0078018D01*
X0087400Y0078617D02*
X0071000Y0078617D01*
X0071000Y0079215D02*
X0087400Y0079215D01*
X0087400Y0079814D02*
X0071000Y0079814D01*
X0071000Y0080412D02*
X0087400Y0080412D01*
X0087400Y0081011D02*
X0071000Y0081011D01*
X0071000Y0081609D02*
X0087400Y0081609D01*
X0087400Y0082208D02*
X0071000Y0082208D01*
X0071000Y0082806D02*
X0087400Y0082806D01*
X0087400Y0083405D02*
X0071000Y0083405D01*
X0071000Y0084003D02*
X0087400Y0084003D01*
X0087400Y0084602D02*
X0071000Y0084602D01*
X0071000Y0085201D02*
X0087400Y0085201D01*
X0087400Y0085799D02*
X0081340Y0085799D01*
X0081862Y0086016D02*
X0080135Y0085300D01*
X0078265Y0085300D01*
X0076538Y0086016D01*
X0075216Y0087338D01*
X0074500Y0089065D01*
X0074500Y0090935D01*
X0075216Y0092662D01*
X0076538Y0093984D01*
X0078265Y0094700D01*
X0080135Y0094700D01*
X0081862Y0093984D01*
X0083184Y0092662D01*
X0083900Y0090935D01*
X0083900Y0089065D01*
X0083184Y0087338D01*
X0081862Y0086016D01*
X0082244Y0086398D02*
X0087400Y0086398D01*
X0087400Y0086996D02*
X0082843Y0086996D01*
X0083291Y0087595D02*
X0087400Y0087595D01*
X0087400Y0088193D02*
X0083539Y0088193D01*
X0083787Y0088792D02*
X0087400Y0088792D01*
X0087400Y0089390D02*
X0083900Y0089390D01*
X0083900Y0089989D02*
X0087400Y0089989D01*
X0087400Y0090587D02*
X0083900Y0090587D01*
X0083796Y0091186D02*
X0087400Y0091186D01*
X0087400Y0091784D02*
X0083548Y0091784D01*
X0083300Y0092383D02*
X0087400Y0092383D01*
X0087400Y0092981D02*
X0082866Y0092981D01*
X0082267Y0093580D02*
X0087400Y0093580D01*
X0087400Y0094178D02*
X0081395Y0094178D01*
X0080316Y0095375D02*
X0087400Y0095375D01*
X0087400Y0094777D02*
X0071000Y0094777D01*
X0071000Y0095375D02*
X0078084Y0095375D01*
X0078265Y0095300D02*
X0080135Y0095300D01*
X0081862Y0096016D01*
X0083184Y0097338D01*
X0083900Y0099065D01*
X0083900Y0100935D01*
X0083184Y0102662D01*
X0081862Y0103984D01*
X0080135Y0104700D01*
X0078265Y0104700D01*
X0076538Y0103984D01*
X0075216Y0102662D01*
X0074500Y0100935D01*
X0074500Y0099065D01*
X0075216Y0097338D01*
X0076538Y0096016D01*
X0078265Y0095300D01*
X0077005Y0094178D02*
X0071000Y0094178D01*
X0071000Y0093580D02*
X0076133Y0093580D01*
X0075534Y0092981D02*
X0071000Y0092981D01*
X0071000Y0092383D02*
X0075100Y0092383D01*
X0074852Y0091784D02*
X0071000Y0091784D01*
X0071000Y0091186D02*
X0074604Y0091186D01*
X0074500Y0090587D02*
X0071000Y0090587D01*
X0071000Y0089989D02*
X0074500Y0089989D01*
X0074500Y0089390D02*
X0071000Y0089390D01*
X0071000Y0088792D02*
X0074613Y0088792D01*
X0074861Y0088193D02*
X0071000Y0088193D01*
X0071000Y0087595D02*
X0075109Y0087595D01*
X0075557Y0086996D02*
X0071000Y0086996D01*
X0071000Y0086398D02*
X0076156Y0086398D01*
X0077060Y0085799D02*
X0071000Y0085799D01*
X0067400Y0085799D02*
X0051340Y0085799D01*
X0051862Y0086016D02*
X0053184Y0087338D01*
X0053900Y0089065D01*
X0053900Y0090935D01*
X0053184Y0092662D01*
X0051862Y0093984D01*
X0050135Y0094700D01*
X0048265Y0094700D01*
X0046538Y0093984D01*
X0045216Y0092662D01*
X0044500Y0090935D01*
X0044500Y0089065D01*
X0045216Y0087338D01*
X0046538Y0086016D01*
X0048265Y0085300D01*
X0050135Y0085300D01*
X0051862Y0086016D01*
X0052244Y0086398D02*
X0067400Y0086398D01*
X0067400Y0086996D02*
X0052843Y0086996D01*
X0053291Y0087595D02*
X0067400Y0087595D01*
X0067400Y0088193D02*
X0053539Y0088193D01*
X0053787Y0088792D02*
X0067400Y0088792D01*
X0067400Y0089390D02*
X0053900Y0089390D01*
X0053900Y0089989D02*
X0067400Y0089989D01*
X0067400Y0090587D02*
X0053900Y0090587D01*
X0053796Y0091186D02*
X0067400Y0091186D01*
X0067400Y0091784D02*
X0053548Y0091784D01*
X0053300Y0092383D02*
X0067400Y0092383D01*
X0067400Y0092981D02*
X0052866Y0092981D01*
X0052267Y0093580D02*
X0067400Y0093580D01*
X0067400Y0094178D02*
X0051395Y0094178D01*
X0050316Y0095375D02*
X0067400Y0095375D01*
X0067400Y0094777D02*
X0036000Y0094777D01*
X0036000Y0095375D02*
X0048084Y0095375D01*
X0046639Y0095974D02*
X0036000Y0095974D01*
X0036000Y0096572D02*
X0045981Y0096572D01*
X0045382Y0097171D02*
X0036000Y0097171D01*
X0036000Y0097769D02*
X0045037Y0097769D01*
X0044789Y0098368D02*
X0036000Y0098368D01*
X0036000Y0098966D02*
X0044541Y0098966D01*
X0044500Y0099565D02*
X0036000Y0099565D01*
X0036000Y0100163D02*
X0044500Y0100163D01*
X0044500Y0100762D02*
X0036000Y0100762D01*
X0036000Y0101360D02*
X0044676Y0101360D01*
X0044924Y0101959D02*
X0036000Y0101959D01*
X0036000Y0102557D02*
X0045172Y0102557D01*
X0045709Y0103156D02*
X0036000Y0103156D01*
X0036000Y0103754D02*
X0046308Y0103754D01*
X0047005Y0094178D02*
X0036000Y0094178D01*
X0036000Y0093580D02*
X0046133Y0093580D01*
X0045534Y0092981D02*
X0036000Y0092981D01*
X0036000Y0092383D02*
X0045100Y0092383D01*
X0044852Y0091784D02*
X0036000Y0091784D01*
X0036000Y0091186D02*
X0044604Y0091186D01*
X0044500Y0090587D02*
X0036000Y0090587D01*
X0036000Y0089989D02*
X0044500Y0089989D01*
X0044500Y0089390D02*
X0036000Y0089390D01*
X0036000Y0088792D02*
X0044613Y0088792D01*
X0044861Y0088193D02*
X0036000Y0088193D01*
X0036000Y0087595D02*
X0045109Y0087595D01*
X0045557Y0086996D02*
X0036000Y0086996D01*
X0036000Y0086398D02*
X0046156Y0086398D01*
X0047060Y0085799D02*
X0036000Y0085799D01*
X0036517Y0085201D02*
X0067400Y0085201D01*
X0067400Y0084602D02*
X0037876Y0084602D01*
X0038475Y0084003D02*
X0067400Y0084003D01*
X0067400Y0083405D02*
X0039073Y0083405D01*
X0039491Y0082806D02*
X0067400Y0082806D01*
X0067400Y0082208D02*
X0039739Y0082208D01*
X0039987Y0081609D02*
X0067400Y0081609D01*
X0067400Y0081011D02*
X0040200Y0081011D01*
X0040200Y0080412D02*
X0067400Y0080412D01*
X0067400Y0079814D02*
X0040200Y0079814D01*
X0040200Y0079215D02*
X0067400Y0079215D01*
X0067400Y0078617D02*
X0040080Y0078617D01*
X0039832Y0078018D02*
X0067400Y0078018D01*
X0067400Y0077420D02*
X0039584Y0077420D01*
X0039300Y0076821D02*
X0067400Y0076821D01*
X0067400Y0076223D02*
X0038701Y0076223D01*
X0038103Y0075624D02*
X0067400Y0075624D01*
X0067400Y0075026D02*
X0037063Y0075026D01*
X0037623Y0074427D02*
X0067400Y0074427D01*
X0067400Y0073829D02*
X0038367Y0073829D01*
X0038904Y0073230D02*
X0067400Y0073230D01*
X0067400Y0072632D02*
X0039307Y0072632D01*
X0039612Y0072033D02*
X0067400Y0072033D01*
X0067400Y0071435D02*
X0039807Y0071435D01*
X0039934Y0070836D02*
X0067400Y0070836D01*
X0067400Y0070238D02*
X0035000Y0070238D01*
X0034400Y0070238D02*
X0029200Y0070238D01*
X0029200Y0070836D02*
X0029466Y0070836D01*
X0029593Y0071435D02*
X0029059Y0071435D01*
X0028811Y0072033D02*
X0029788Y0072033D01*
X0030093Y0072632D02*
X0028563Y0072632D01*
X0028248Y0073230D02*
X0030496Y0073230D01*
X0031034Y0073829D02*
X0027649Y0073829D01*
X0027051Y0074427D02*
X0031777Y0074427D01*
X0032337Y0075026D02*
X0026063Y0075026D01*
X0027103Y0075624D02*
X0031298Y0075624D01*
X0030699Y0076223D02*
X0027701Y0076223D01*
X0028300Y0076821D02*
X0030101Y0076821D01*
X0029816Y0077420D02*
X0028584Y0077420D01*
X0028832Y0078018D02*
X0029568Y0078018D01*
X0029320Y0078617D02*
X0029080Y0078617D01*
X0029200Y0079215D02*
X0029200Y0079215D01*
X0029200Y0079814D02*
X0029200Y0079814D01*
X0029200Y0080412D02*
X0029200Y0080412D01*
X0029200Y0081011D02*
X0029200Y0081011D01*
X0028987Y0081609D02*
X0029414Y0081609D01*
X0029661Y0082208D02*
X0028739Y0082208D01*
X0028491Y0082806D02*
X0029909Y0082806D01*
X0030327Y0083405D02*
X0028073Y0083405D01*
X0027475Y0084003D02*
X0030925Y0084003D01*
X0031524Y0084602D02*
X0026876Y0084602D01*
X0025517Y0085201D02*
X0032400Y0085201D01*
X0032400Y0085799D02*
X0011000Y0085799D01*
X0011000Y0085201D02*
X0021883Y0085201D01*
X0020524Y0084602D02*
X0011000Y0084602D01*
X0011000Y0084003D02*
X0019925Y0084003D01*
X0019327Y0083405D02*
X0011000Y0083405D01*
X0011000Y0082806D02*
X0018909Y0082806D01*
X0018661Y0082208D02*
X0011000Y0082208D01*
X0011000Y0081609D02*
X0018414Y0081609D01*
X0018200Y0081011D02*
X0011000Y0081011D01*
X0011000Y0080412D02*
X0018200Y0080412D01*
X0018200Y0079814D02*
X0011000Y0079814D01*
X0011000Y0079215D02*
X0018200Y0079215D01*
X0018320Y0078617D02*
X0011000Y0078617D01*
X0011000Y0078018D02*
X0018568Y0078018D01*
X0018816Y0077420D02*
X0011000Y0077420D01*
X0011000Y0076821D02*
X0019101Y0076821D01*
X0019699Y0076223D02*
X0011000Y0076223D01*
X0011121Y0075624D02*
X0020298Y0075624D01*
X0020349Y0074427D02*
X0012318Y0074427D01*
X0012917Y0073829D02*
X0019751Y0073829D01*
X0019152Y0073230D02*
X0013515Y0073230D01*
X0014114Y0072632D02*
X0018837Y0072632D01*
X0018589Y0072033D02*
X0014712Y0072033D01*
X0013212Y0068442D02*
X0006000Y0068442D01*
X0006000Y0067844D02*
X0018640Y0067844D01*
X0018888Y0067245D02*
X0006000Y0067245D01*
X0006000Y0066647D02*
X0019275Y0066647D01*
X0019874Y0066048D02*
X0006000Y0066048D01*
X0006000Y0065450D02*
X0020472Y0065450D01*
X0021758Y0064851D02*
X0006000Y0064851D01*
X0006000Y0064253D02*
X0021900Y0064253D01*
X0021638Y0063654D02*
X0006000Y0063654D01*
X0006000Y0063056D02*
X0020769Y0063056D01*
X0020170Y0062457D02*
X0006000Y0062457D01*
X0006000Y0061859D02*
X0019632Y0061859D01*
X0019384Y0061260D02*
X0006000Y0061260D01*
X0006000Y0060662D02*
X0019136Y0060662D01*
X0018888Y0060063D02*
X0006000Y0060063D01*
X0006000Y0059465D02*
X0018861Y0059465D01*
X0018861Y0058866D02*
X0006000Y0058866D01*
X0006000Y0058268D02*
X0018861Y0058268D01*
X0018947Y0057669D02*
X0006000Y0057669D01*
X0006000Y0057070D02*
X0019195Y0057070D01*
X0019443Y0056472D02*
X0006000Y0056472D01*
X0006000Y0055873D02*
X0019714Y0055873D01*
X0020312Y0055275D02*
X0006000Y0055275D01*
X0006000Y0054676D02*
X0020911Y0054676D01*
X0021980Y0054078D02*
X0006000Y0054078D01*
X0006000Y0053479D02*
X0067400Y0053479D01*
X0067400Y0052881D02*
X0006000Y0052881D01*
X0006000Y0052282D02*
X0067400Y0052282D01*
X0067400Y0051684D02*
X0045471Y0051684D01*
X0045791Y0051521D02*
X0045070Y0051888D01*
X0044301Y0052138D01*
X0043502Y0052265D01*
X0043398Y0052265D01*
X0043398Y0047426D01*
X0048236Y0047426D01*
X0048236Y0047530D01*
X0048110Y0048329D01*
X0047860Y0049099D01*
X0047493Y0049819D01*
X0047017Y0050474D01*
X0046445Y0051045D01*
X0045791Y0051521D01*
X0046390Y0051085D02*
X0067400Y0051085D01*
X0067400Y0050487D02*
X0047004Y0050487D01*
X0047442Y0049888D02*
X0062413Y0049888D01*
X0061136Y0049290D02*
X0047762Y0049290D01*
X0047992Y0048691D02*
X0052376Y0048691D01*
X0051777Y0048093D02*
X0048147Y0048093D01*
X0048236Y0047494D02*
X0051179Y0047494D01*
X0050580Y0046896D02*
X0043398Y0046896D01*
X0043398Y0046826D02*
X0043398Y0047426D01*
X0042798Y0047426D01*
X0042798Y0052265D01*
X0042693Y0052265D01*
X0041894Y0052138D01*
X0041125Y0051888D01*
X0040404Y0051521D01*
X0039750Y0051045D01*
X0039178Y0050474D01*
X0038703Y0049819D01*
X0038336Y0049099D01*
X0038086Y0048329D01*
X0037959Y0047530D01*
X0037959Y0047426D01*
X0042798Y0047426D01*
X0042798Y0046826D01*
X0043398Y0046826D01*
X0048236Y0046826D01*
X0048236Y0046722D01*
X0048110Y0045923D01*
X0047860Y0045153D01*
X0047493Y0044433D01*
X0047017Y0043778D01*
X0046445Y0043206D01*
X0045791Y0042731D01*
X0045070Y0042364D01*
X0044301Y0042114D01*
X0043502Y0041987D01*
X0043398Y0041987D01*
X0043398Y0046826D01*
X0043098Y0047126D02*
X0035224Y0047126D01*
X0024200Y0036102D01*
X0023900Y0036123D02*
X0006000Y0036123D01*
X0006000Y0036721D02*
X0019095Y0036721D01*
X0019061Y0036507D02*
X0019061Y0036402D01*
X0023900Y0036402D01*
X0023900Y0035802D01*
X0024500Y0035802D01*
X0024500Y0030964D01*
X0024604Y0030964D01*
X0025403Y0031090D01*
X0026173Y0031340D01*
X0026893Y0031707D01*
X0027548Y0032183D01*
X0028120Y0032755D01*
X0028595Y0033409D01*
X0028962Y0034130D01*
X0029212Y0034899D01*
X0029339Y0035698D01*
X0029339Y0035802D01*
X0024500Y0035802D01*
X0024500Y0036402D01*
X0029339Y0036402D01*
X0029339Y0036507D01*
X0029212Y0037306D01*
X0028962Y0038075D01*
X0028595Y0038796D01*
X0028120Y0039450D01*
X0027548Y0040022D01*
X0026893Y0040497D01*
X0026173Y0040864D01*
X0025403Y0041114D01*
X0024604Y0041241D01*
X0024500Y0041241D01*
X0024500Y0036402D01*
X0023900Y0036402D01*
X0023900Y0041241D01*
X0023796Y0041241D01*
X0022997Y0041114D01*
X0022227Y0040864D01*
X0021507Y0040497D01*
X0020852Y0040022D01*
X0020281Y0039450D01*
X0019805Y0038796D01*
X0019438Y0038075D01*
X0019188Y0037306D01*
X0019061Y0036507D01*
X0019061Y0035802D02*
X0019061Y0035698D01*
X0019188Y0034899D01*
X0019438Y0034130D01*
X0019805Y0033409D01*
X0020281Y0032755D01*
X0020852Y0032183D01*
X0021507Y0031707D01*
X0022227Y0031340D01*
X0022997Y0031090D01*
X0023796Y0030964D01*
X0023900Y0030964D01*
X0023900Y0035802D01*
X0019061Y0035802D01*
X0019089Y0035524D02*
X0006000Y0035524D01*
X0006000Y0034926D02*
X0019184Y0034926D01*
X0019374Y0034327D02*
X0006000Y0034327D01*
X0006000Y0033729D02*
X0019642Y0033729D01*
X0020008Y0033130D02*
X0006000Y0033130D01*
X0006000Y0032532D02*
X0020504Y0032532D01*
X0021196Y0031933D02*
X0006000Y0031933D01*
X0006000Y0031334D02*
X0022245Y0031334D01*
X0023900Y0031334D02*
X0024500Y0031334D01*
X0024500Y0031933D02*
X0023900Y0031933D01*
X0023900Y0032532D02*
X0024500Y0032532D01*
X0024500Y0033130D02*
X0023900Y0033130D01*
X0023900Y0033729D02*
X0024500Y0033729D01*
X0024500Y0034327D02*
X0023900Y0034327D01*
X0023900Y0034926D02*
X0024500Y0034926D01*
X0024500Y0035524D02*
X0023900Y0035524D01*
X0024500Y0036123D02*
X0059037Y0036123D01*
X0059000Y0035524D02*
X0029311Y0035524D01*
X0029216Y0034926D02*
X0059000Y0034926D01*
X0059000Y0034327D02*
X0029026Y0034327D01*
X0028758Y0033729D02*
X0059098Y0033729D01*
X0059346Y0033130D02*
X0028392Y0033130D01*
X0027896Y0032532D02*
X0059594Y0032532D01*
X0059913Y0031933D02*
X0027204Y0031933D01*
X0026155Y0031334D02*
X0060512Y0031334D01*
X0061110Y0030736D02*
X0006000Y0030736D01*
X0006000Y0030137D02*
X0062351Y0030137D01*
X0062095Y0029539D02*
X0006000Y0029539D01*
X0006000Y0028940D02*
X0061117Y0028940D01*
X0060471Y0028342D02*
X0056373Y0028342D01*
X0055815Y0028900D02*
X0052585Y0028900D01*
X0050300Y0026615D01*
X0050300Y0023385D01*
X0052585Y0021100D01*
X0055815Y0021100D01*
X0058100Y0023385D01*
X0058100Y0026615D01*
X0055815Y0028900D01*
X0056972Y0027743D02*
X0060013Y0027743D01*
X0059681Y0027145D02*
X0057571Y0027145D01*
X0058100Y0026546D02*
X0059445Y0026546D01*
X0059288Y0025948D02*
X0058100Y0025948D01*
X0058100Y0025349D02*
X0059200Y0025349D01*
X0059272Y0024152D02*
X0058100Y0024152D01*
X0058100Y0023554D02*
X0059413Y0023554D01*
X0059630Y0022955D02*
X0057671Y0022955D01*
X0057072Y0022357D02*
X0059940Y0022357D01*
X0060375Y0021758D02*
X0056474Y0021758D01*
X0055875Y0021160D02*
X0060979Y0021160D01*
X0061898Y0020561D02*
X0006000Y0020561D01*
X0006000Y0019963D02*
X0072773Y0019963D01*
X0071328Y0020561D02*
X0066502Y0020561D01*
X0067421Y0021160D02*
X0070686Y0021160D01*
X0070088Y0021758D02*
X0068025Y0021758D01*
X0068460Y0022357D02*
X0069666Y0022357D01*
X0069419Y0022955D02*
X0068770Y0022955D01*
X0068987Y0023554D02*
X0069171Y0023554D01*
X0064500Y0023554D02*
X0063900Y0023554D01*
X0063900Y0024152D02*
X0064500Y0024152D01*
X0063900Y0024751D02*
X0058100Y0024751D01*
X0063900Y0022955D02*
X0064500Y0022955D01*
X0064500Y0022357D02*
X0063900Y0022357D01*
X0063900Y0021758D02*
X0064500Y0021758D01*
X0064500Y0021160D02*
X0063900Y0021160D01*
X0063900Y0020561D02*
X0064500Y0020561D01*
X0064200Y0035000D02*
X0069200Y0040000D01*
X0069200Y0100000D01*
X0079200Y0110000D01*
X0082516Y0113331D02*
X0087400Y0113331D01*
X0087400Y0113929D02*
X0081918Y0113929D01*
X0080551Y0114528D02*
X0087127Y0114528D01*
X0086528Y0115126D02*
X0036000Y0115126D01*
X0032400Y0115126D02*
X0021022Y0115126D01*
X0021858Y0114528D02*
X0032400Y0114528D01*
X0032400Y0113929D02*
X0022625Y0113929D01*
X0023223Y0113331D02*
X0032400Y0113331D01*
X0032400Y0112732D02*
X0023697Y0112732D01*
X0023945Y0112134D02*
X0032400Y0112134D01*
X0032400Y0111535D02*
X0024193Y0111535D01*
X0024400Y0110937D02*
X0032400Y0110937D01*
X0032400Y0110338D02*
X0024400Y0110338D01*
X0024400Y0109739D02*
X0032400Y0109739D01*
X0032400Y0109141D02*
X0024400Y0109141D01*
X0024225Y0108542D02*
X0032400Y0108542D01*
X0032400Y0107944D02*
X0023977Y0107944D01*
X0023729Y0107345D02*
X0032400Y0107345D01*
X0032400Y0106747D02*
X0023301Y0106747D01*
X0022702Y0106148D02*
X0032400Y0106148D01*
X0032400Y0105550D02*
X0022045Y0105550D01*
X0022201Y0104353D02*
X0032400Y0104353D01*
X0032400Y0104951D02*
X0020835Y0104951D01*
X0022800Y0103754D02*
X0032400Y0103754D01*
X0032400Y0103156D02*
X0023398Y0103156D01*
X0023769Y0102557D02*
X0032400Y0102557D01*
X0032400Y0101959D02*
X0024017Y0101959D01*
X0024265Y0101360D02*
X0032400Y0101360D01*
X0032400Y0100762D02*
X0024400Y0100762D01*
X0024400Y0100163D02*
X0032400Y0100163D01*
X0032400Y0099565D02*
X0024400Y0099565D01*
X0023904Y0097769D02*
X0032400Y0097769D01*
X0032400Y0097171D02*
X0023657Y0097171D01*
X0023126Y0096572D02*
X0032400Y0096572D01*
X0032400Y0095974D02*
X0022528Y0095974D01*
X0021623Y0095375D02*
X0032400Y0095375D01*
X0032400Y0094777D02*
X0011000Y0094777D01*
X0011000Y0095375D02*
X0016777Y0095375D01*
X0015872Y0095974D02*
X0011000Y0095974D01*
X0011000Y0096572D02*
X0015274Y0096572D01*
X0014744Y0097171D02*
X0011000Y0097171D01*
X0011000Y0097769D02*
X0014496Y0097769D01*
X0014000Y0099565D02*
X0011000Y0099565D01*
X0011000Y0100163D02*
X0014000Y0100163D01*
X0014000Y0100762D02*
X0011000Y0100762D01*
X0011000Y0101360D02*
X0014135Y0101360D01*
X0014383Y0101959D02*
X0011000Y0101959D01*
X0011000Y0102557D02*
X0014631Y0102557D01*
X0015002Y0103156D02*
X0011000Y0103156D01*
X0011000Y0103754D02*
X0015600Y0103754D01*
X0016199Y0104353D02*
X0011000Y0104353D01*
X0011000Y0104951D02*
X0017566Y0104951D01*
X0016355Y0105550D02*
X0011000Y0105550D01*
X0011000Y0106148D02*
X0015698Y0106148D01*
X0015099Y0106747D02*
X0011000Y0106747D01*
X0011000Y0107345D02*
X0014671Y0107345D01*
X0014423Y0107944D02*
X0011000Y0107944D01*
X0011000Y0108542D02*
X0014175Y0108542D01*
X0014000Y0109141D02*
X0011000Y0109141D01*
X0011000Y0109739D02*
X0014000Y0109739D01*
X0014000Y0110338D02*
X0011000Y0110338D01*
X0011000Y0110937D02*
X0014000Y0110937D01*
X0014207Y0111535D02*
X0011000Y0111535D01*
X0011000Y0112134D02*
X0014455Y0112134D01*
X0014703Y0112732D02*
X0011000Y0112732D01*
X0011000Y0113331D02*
X0015177Y0113331D01*
X0015775Y0113929D02*
X0011000Y0113929D01*
X0011000Y0114528D02*
X0016542Y0114528D01*
X0017378Y0115126D02*
X0011000Y0115126D01*
X0011000Y0115725D02*
X0016122Y0115725D01*
X0015523Y0116323D02*
X0011000Y0116323D01*
X0011000Y0116922D02*
X0014924Y0116922D01*
X0014599Y0117520D02*
X0011000Y0117520D01*
X0011000Y0118119D02*
X0014351Y0118119D01*
X0014103Y0118717D02*
X0011000Y0118717D01*
X0011000Y0119316D02*
X0014000Y0119316D01*
X0014000Y0119914D02*
X0011000Y0119914D01*
X0011000Y0120513D02*
X0014000Y0120513D01*
X0014032Y0121111D02*
X0011000Y0121111D01*
X0011000Y0121710D02*
X0014280Y0121710D01*
X0014528Y0122308D02*
X0011000Y0122308D01*
X0011000Y0122907D02*
X0014776Y0122907D01*
X0015351Y0123505D02*
X0011000Y0123505D01*
X0011000Y0124104D02*
X0015950Y0124104D01*
X0016964Y0124702D02*
X0011448Y0124702D01*
X0012046Y0125301D02*
X0016957Y0125301D01*
X0015947Y0125899D02*
X0012645Y0125899D01*
X0013243Y0126498D02*
X0015348Y0126498D01*
X0014774Y0127096D02*
X0013842Y0127096D01*
X0014440Y0127695D02*
X0014526Y0127695D01*
X0014200Y0130000D02*
X0019200Y0130000D01*
X0021443Y0125301D02*
X0032400Y0125301D01*
X0032400Y0125899D02*
X0022453Y0125899D01*
X0023052Y0126498D02*
X0032400Y0126498D01*
X0032400Y0127096D02*
X0023626Y0127096D01*
X0023874Y0127695D02*
X0032400Y0127695D01*
X0032104Y0128293D02*
X0024122Y0128293D01*
X0024369Y0128892D02*
X0031749Y0128892D01*
X0031511Y0129490D02*
X0024400Y0129490D01*
X0024400Y0130089D02*
X0031511Y0130089D01*
X0031574Y0130687D02*
X0024400Y0130687D01*
X0024296Y0131286D02*
X0031822Y0131286D01*
X0032282Y0131884D02*
X0024048Y0131884D01*
X0023800Y0132483D02*
X0033168Y0132483D01*
X0034200Y0130000D02*
X0034200Y0080500D01*
X0034700Y0080000D01*
X0032400Y0086398D02*
X0011000Y0086398D01*
X0011000Y0086996D02*
X0032400Y0086996D01*
X0032400Y0087595D02*
X0011000Y0087595D01*
X0011000Y0088193D02*
X0032400Y0088193D01*
X0032400Y0088792D02*
X0011000Y0088792D01*
X0011000Y0089390D02*
X0032400Y0089390D01*
X0032400Y0089989D02*
X0011000Y0089989D01*
X0011000Y0090587D02*
X0032400Y0090587D01*
X0032400Y0091186D02*
X0011000Y0091186D01*
X0011000Y0091784D02*
X0032400Y0091784D01*
X0032400Y0092383D02*
X0011000Y0092383D01*
X0011000Y0092981D02*
X0032400Y0092981D01*
X0032400Y0093580D02*
X0011000Y0093580D01*
X0011000Y0094178D02*
X0032400Y0094178D01*
X0032400Y0115725D02*
X0022279Y0115725D01*
X0022877Y0116323D02*
X0032400Y0116323D01*
X0032400Y0116922D02*
X0023476Y0116922D01*
X0023801Y0117520D02*
X0032400Y0117520D01*
X0032400Y0118119D02*
X0024049Y0118119D01*
X0024297Y0118717D02*
X0032400Y0118717D01*
X0032400Y0119316D02*
X0024400Y0119316D01*
X0024400Y0119914D02*
X0032400Y0119914D01*
X0032400Y0120513D02*
X0024400Y0120513D01*
X0024368Y0121111D02*
X0032400Y0121111D01*
X0032400Y0121710D02*
X0024120Y0121710D01*
X0023872Y0122308D02*
X0032400Y0122308D01*
X0032400Y0122907D02*
X0023624Y0122907D01*
X0023049Y0123505D02*
X0032400Y0123505D01*
X0032400Y0124104D02*
X0022450Y0124104D01*
X0021436Y0124702D02*
X0032400Y0124702D01*
X0036000Y0125301D02*
X0048263Y0125301D01*
X0046818Y0125899D02*
X0036000Y0125899D01*
X0036000Y0126498D02*
X0046055Y0126498D01*
X0045457Y0127096D02*
X0036000Y0127096D01*
X0036000Y0127695D02*
X0045068Y0127695D01*
X0044820Y0128293D02*
X0036296Y0128293D01*
X0036652Y0128892D02*
X0044572Y0128892D01*
X0044500Y0129490D02*
X0036889Y0129490D01*
X0036889Y0130089D02*
X0044500Y0130089D01*
X0044500Y0130687D02*
X0036826Y0130687D01*
X0036578Y0131286D02*
X0044645Y0131286D01*
X0044893Y0131884D02*
X0036118Y0131884D01*
X0035232Y0132483D02*
X0045141Y0132483D01*
X0045635Y0133081D02*
X0023473Y0133081D01*
X0022874Y0133680D02*
X0046233Y0133680D01*
X0047247Y0134278D02*
X0022275Y0134278D01*
X0014200Y0130000D02*
X0009200Y0135000D01*
X0009200Y0150000D01*
X0019200Y0160000D01*
X0019366Y0157620D02*
X0045098Y0157620D01*
X0045531Y0157022D02*
X0018767Y0157022D01*
X0018169Y0156423D02*
X0046130Y0156423D01*
X0046998Y0155825D02*
X0017570Y0155825D01*
X0016972Y0155226D02*
X0111881Y0155226D01*
X0114578Y0152832D02*
X0137400Y0152832D01*
X0137400Y0152234D02*
X0113979Y0152234D01*
X0113381Y0151635D02*
X0137400Y0151635D01*
X0137400Y0151037D02*
X0112782Y0151037D01*
X0112184Y0150438D02*
X0137400Y0150438D01*
X0137400Y0149840D02*
X0111585Y0149840D01*
X0110987Y0149241D02*
X0137400Y0149241D01*
X0137400Y0148643D02*
X0110388Y0148643D01*
X0109790Y0148044D02*
X0137400Y0148044D01*
X0137400Y0147446D02*
X0109191Y0147446D01*
X0108593Y0146847D02*
X0137400Y0146847D01*
X0137400Y0146249D02*
X0107994Y0146249D01*
X0107396Y0145650D02*
X0137400Y0145650D01*
X0137400Y0145052D02*
X0106797Y0145052D01*
X0106199Y0144453D02*
X0137400Y0144453D01*
X0137400Y0143855D02*
X0105600Y0143855D01*
X0105002Y0143256D02*
X0137400Y0143256D01*
X0137400Y0142658D02*
X0104403Y0142658D01*
X0103805Y0142059D02*
X0137400Y0142059D01*
X0137400Y0141461D02*
X0103206Y0141461D01*
X0102608Y0140862D02*
X0137400Y0140862D01*
X0137400Y0140264D02*
X0102009Y0140264D01*
X0101411Y0139665D02*
X0137400Y0139665D01*
X0137400Y0139067D02*
X0100812Y0139067D01*
X0100214Y0138468D02*
X0137400Y0138468D01*
X0137400Y0125899D02*
X0085846Y0125899D01*
X0086445Y0125301D02*
X0137400Y0125301D01*
X0137400Y0124702D02*
X0116436Y0124702D01*
X0117146Y0124408D02*
X0115234Y0125200D01*
X0113166Y0125200D01*
X0111254Y0124408D01*
X0109792Y0122946D01*
X0109200Y0121517D01*
X0108608Y0122946D01*
X0107146Y0124408D01*
X0105234Y0125200D01*
X0103166Y0125200D01*
X0101254Y0124408D01*
X0099792Y0122946D01*
X0099000Y0121034D01*
X0099000Y0118966D01*
X0099792Y0117054D01*
X0101254Y0115592D01*
X0103166Y0114800D01*
X0105234Y0114800D01*
X0107146Y0115592D01*
X0108608Y0117054D01*
X0109200Y0118483D01*
X0109792Y0117054D01*
X0111254Y0115592D01*
X0113166Y0114800D01*
X0115234Y0114800D01*
X0117146Y0115592D01*
X0118608Y0117054D01*
X0119400Y0118966D01*
X0119400Y0121034D01*
X0118608Y0122946D01*
X0117146Y0124408D01*
X0117450Y0124104D02*
X0137400Y0124104D01*
X0137400Y0123505D02*
X0118049Y0123505D01*
X0118624Y0122907D02*
X0137400Y0122907D01*
X0137400Y0122308D02*
X0118872Y0122308D01*
X0119120Y0121710D02*
X0137400Y0121710D01*
X0137400Y0121111D02*
X0119368Y0121111D01*
X0119400Y0120513D02*
X0137400Y0120513D01*
X0137400Y0119914D02*
X0119400Y0119914D01*
X0119400Y0119316D02*
X0137400Y0119316D01*
X0137400Y0118717D02*
X0119297Y0118717D01*
X0119049Y0118119D02*
X0137400Y0118119D01*
X0137400Y0117520D02*
X0118801Y0117520D01*
X0118476Y0116922D02*
X0137400Y0116922D01*
X0137400Y0116323D02*
X0117877Y0116323D01*
X0117279Y0115725D02*
X0137400Y0115725D01*
X0137400Y0115126D02*
X0116022Y0115126D01*
X0112378Y0115126D02*
X0106022Y0115126D01*
X0107279Y0115725D02*
X0111122Y0115725D01*
X0110523Y0116323D02*
X0107877Y0116323D01*
X0108476Y0116922D02*
X0109924Y0116922D01*
X0109599Y0117520D02*
X0108801Y0117520D01*
X0109049Y0118119D02*
X0109351Y0118119D01*
X0109280Y0121710D02*
X0109120Y0121710D01*
X0108872Y0122308D02*
X0109528Y0122308D01*
X0109776Y0122907D02*
X0108624Y0122907D01*
X0108049Y0123505D02*
X0110351Y0123505D01*
X0110950Y0124104D02*
X0107450Y0124104D01*
X0106436Y0124702D02*
X0111964Y0124702D01*
X0101964Y0124702D02*
X0087043Y0124702D01*
X0087642Y0124104D02*
X0100950Y0124104D01*
X0100351Y0123505D02*
X0088240Y0123505D01*
X0088839Y0122907D02*
X0099776Y0122907D01*
X0099528Y0122308D02*
X0089437Y0122308D01*
X0090036Y0121710D02*
X0099280Y0121710D01*
X0099032Y0121111D02*
X0090634Y0121111D01*
X0091233Y0120513D02*
X0099000Y0120513D01*
X0099000Y0119914D02*
X0091831Y0119914D01*
X0092430Y0119316D02*
X0099000Y0119316D01*
X0099103Y0118717D02*
X0093028Y0118717D01*
X0093627Y0118119D02*
X0099351Y0118119D01*
X0099599Y0117520D02*
X0094225Y0117520D01*
X0094824Y0116922D02*
X0099924Y0116922D01*
X0100523Y0116323D02*
X0095423Y0116323D01*
X0096000Y0115725D02*
X0101122Y0115725D01*
X0102378Y0115126D02*
X0096000Y0115126D01*
X0096000Y0114528D02*
X0137400Y0114528D01*
X0137400Y0113929D02*
X0096000Y0113929D01*
X0096000Y0113331D02*
X0127298Y0113331D01*
X0127667Y0113700D02*
X0125500Y0111533D01*
X0125500Y0110300D01*
X0128900Y0110300D01*
X0128900Y0109700D01*
X0125500Y0109700D01*
X0125500Y0108467D01*
X0127667Y0106300D01*
X0128900Y0106300D01*
X0128900Y0109700D01*
X0129500Y0109700D01*
X0129500Y0106300D01*
X0130733Y0106300D01*
X0132900Y0108467D01*
X0132900Y0109700D01*
X0129500Y0109700D01*
X0129500Y0110300D01*
X0128900Y0110300D01*
X0128900Y0113700D01*
X0127667Y0113700D01*
X0128900Y0113331D02*
X0129500Y0113331D01*
X0129500Y0113700D02*
X0129500Y0110300D01*
X0132900Y0110300D01*
X0132900Y0111533D01*
X0130733Y0113700D01*
X0129500Y0113700D01*
X0129500Y0112732D02*
X0128900Y0112732D01*
X0128900Y0112134D02*
X0129500Y0112134D01*
X0129500Y0111535D02*
X0128900Y0111535D01*
X0128900Y0110937D02*
X0129500Y0110937D01*
X0129500Y0110338D02*
X0128900Y0110338D01*
X0128900Y0109739D02*
X0096000Y0109739D01*
X0096000Y0109141D02*
X0125500Y0109141D01*
X0125500Y0108542D02*
X0096000Y0108542D01*
X0096000Y0107944D02*
X0126023Y0107944D01*
X0126622Y0107345D02*
X0096000Y0107345D01*
X0096000Y0106747D02*
X0127221Y0106747D01*
X0128900Y0106747D02*
X0129500Y0106747D01*
X0129500Y0107345D02*
X0128900Y0107345D01*
X0128900Y0107944D02*
X0129500Y0107944D01*
X0129500Y0108542D02*
X0128900Y0108542D01*
X0128900Y0109141D02*
X0129500Y0109141D01*
X0129500Y0109739D02*
X0137400Y0109739D01*
X0137400Y0109141D02*
X0132900Y0109141D01*
X0132900Y0108542D02*
X0137400Y0108542D01*
X0137400Y0107944D02*
X0132377Y0107944D01*
X0131778Y0107345D02*
X0137400Y0107345D01*
X0137400Y0106747D02*
X0131180Y0106747D01*
X0132900Y0110338D02*
X0137400Y0110338D01*
X0137400Y0110937D02*
X0132900Y0110937D01*
X0132898Y0111535D02*
X0137400Y0111535D01*
X0137400Y0112134D02*
X0132299Y0112134D01*
X0131701Y0112732D02*
X0137400Y0112732D01*
X0137400Y0113331D02*
X0131102Y0113331D01*
X0126699Y0112732D02*
X0096000Y0112732D01*
X0096000Y0112134D02*
X0126101Y0112134D01*
X0125502Y0111535D02*
X0096000Y0111535D01*
X0096000Y0110937D02*
X0125500Y0110937D01*
X0125500Y0110338D02*
X0096000Y0110338D01*
X0096000Y0106148D02*
X0137400Y0106148D01*
X0137400Y0105550D02*
X0096000Y0105550D01*
X0096000Y0104951D02*
X0137400Y0104951D01*
X0137400Y0104353D02*
X0096000Y0104353D01*
X0096000Y0103754D02*
X0137400Y0103754D01*
X0137400Y0103156D02*
X0096000Y0103156D01*
X0096000Y0102557D02*
X0137400Y0102557D01*
X0137400Y0101959D02*
X0096000Y0101959D01*
X0096000Y0101360D02*
X0137400Y0101360D01*
X0137400Y0100762D02*
X0096000Y0100762D01*
X0096000Y0100163D02*
X0137400Y0100163D01*
X0137400Y0099565D02*
X0096000Y0099565D01*
X0096000Y0098966D02*
X0137400Y0098966D01*
X0137400Y0098368D02*
X0131348Y0098368D01*
X0130815Y0098900D02*
X0127585Y0098900D01*
X0125300Y0096615D01*
X0125300Y0093385D01*
X0127585Y0091100D01*
X0130815Y0091100D01*
X0133100Y0093385D01*
X0133100Y0096615D01*
X0130815Y0098900D01*
X0131946Y0097769D02*
X0137400Y0097769D01*
X0137400Y0097171D02*
X0132545Y0097171D01*
X0133100Y0096572D02*
X0137400Y0096572D01*
X0137400Y0095974D02*
X0133100Y0095974D01*
X0133100Y0095375D02*
X0137400Y0095375D01*
X0137400Y0094777D02*
X0133100Y0094777D01*
X0133100Y0094178D02*
X0137400Y0094178D01*
X0137400Y0093580D02*
X0133100Y0093580D01*
X0132697Y0092981D02*
X0137400Y0092981D01*
X0137400Y0092383D02*
X0132098Y0092383D01*
X0131500Y0091784D02*
X0137400Y0091784D01*
X0137400Y0091186D02*
X0130901Y0091186D01*
X0127499Y0091186D02*
X0119337Y0091186D01*
X0119400Y0091034D02*
X0118608Y0092946D01*
X0117146Y0094408D01*
X0115234Y0095200D01*
X0113166Y0095200D01*
X0111254Y0094408D01*
X0109792Y0092946D01*
X0109200Y0091517D01*
X0108608Y0092946D01*
X0107146Y0094408D01*
X0105234Y0095200D01*
X0103166Y0095200D01*
X0101254Y0094408D01*
X0099792Y0092946D01*
X0099000Y0091034D01*
X0099000Y0088966D01*
X0099792Y0087054D01*
X0101254Y0085592D01*
X0103166Y0084800D01*
X0105234Y0084800D01*
X0107146Y0085592D01*
X0108608Y0087054D01*
X0109200Y0088483D01*
X0109792Y0087054D01*
X0111254Y0085592D01*
X0113166Y0084800D01*
X0115234Y0084800D01*
X0117146Y0085592D01*
X0118608Y0087054D01*
X0119400Y0088966D01*
X0119400Y0091034D01*
X0119400Y0090587D02*
X0137400Y0090587D01*
X0137400Y0089989D02*
X0119400Y0089989D01*
X0119400Y0089390D02*
X0137400Y0089390D01*
X0137400Y0088792D02*
X0119328Y0088792D01*
X0119080Y0088193D02*
X0137400Y0088193D01*
X0137400Y0087595D02*
X0118832Y0087595D01*
X0118550Y0086996D02*
X0137400Y0086996D01*
X0137400Y0086398D02*
X0117951Y0086398D01*
X0117353Y0085799D02*
X0137400Y0085799D01*
X0137400Y0085201D02*
X0116201Y0085201D01*
X0112199Y0085201D02*
X0106201Y0085201D01*
X0107353Y0085799D02*
X0111047Y0085799D01*
X0110449Y0086398D02*
X0107951Y0086398D01*
X0108550Y0086996D02*
X0109850Y0086996D01*
X0109568Y0087595D02*
X0108832Y0087595D01*
X0109080Y0088193D02*
X0109320Y0088193D01*
X0109311Y0091784D02*
X0109089Y0091784D01*
X0108842Y0092383D02*
X0109559Y0092383D01*
X0109827Y0092981D02*
X0108573Y0092981D01*
X0107974Y0093580D02*
X0110426Y0093580D01*
X0111024Y0094178D02*
X0107376Y0094178D01*
X0106256Y0094777D02*
X0112144Y0094777D01*
X0116256Y0094777D02*
X0125300Y0094777D01*
X0125300Y0095375D02*
X0096000Y0095375D01*
X0096000Y0094777D02*
X0102144Y0094777D01*
X0101024Y0094178D02*
X0096000Y0094178D01*
X0096000Y0093580D02*
X0100426Y0093580D01*
X0099827Y0092981D02*
X0096000Y0092981D01*
X0096000Y0092383D02*
X0099559Y0092383D01*
X0099311Y0091784D02*
X0096000Y0091784D01*
X0096000Y0091186D02*
X0099063Y0091186D01*
X0099000Y0090587D02*
X0096000Y0090587D01*
X0096000Y0089989D02*
X0099000Y0089989D01*
X0099000Y0089390D02*
X0096000Y0089390D01*
X0096000Y0088792D02*
X0099072Y0088792D01*
X0099320Y0088193D02*
X0096000Y0088193D01*
X0096000Y0087595D02*
X0099568Y0087595D01*
X0099850Y0086996D02*
X0096000Y0086996D01*
X0096000Y0086398D02*
X0100449Y0086398D01*
X0101047Y0085799D02*
X0096000Y0085799D01*
X0096000Y0085201D02*
X0102199Y0085201D01*
X0096000Y0084602D02*
X0137400Y0084602D01*
X0137400Y0084003D02*
X0096000Y0084003D01*
X0096000Y0083405D02*
X0137400Y0083405D01*
X0137400Y0082806D02*
X0096000Y0082806D01*
X0096000Y0082208D02*
X0137400Y0082208D01*
X0137400Y0081609D02*
X0096000Y0081609D01*
X0096000Y0081011D02*
X0137400Y0081011D01*
X0137400Y0080412D02*
X0096000Y0080412D01*
X0096000Y0079814D02*
X0137400Y0079814D01*
X0137400Y0079215D02*
X0096000Y0079215D01*
X0096000Y0078617D02*
X0127584Y0078617D01*
X0127667Y0078700D02*
X0125500Y0076533D01*
X0125500Y0075300D01*
X0128900Y0075300D01*
X0128900Y0074700D01*
X0125500Y0074700D01*
X0125500Y0073467D01*
X0127667Y0071300D01*
X0128900Y0071300D01*
X0128900Y0074700D01*
X0129500Y0074700D01*
X0129500Y0071300D01*
X0130733Y0071300D01*
X0132900Y0073467D01*
X0132900Y0074700D01*
X0129500Y0074700D01*
X0129500Y0075300D01*
X0128900Y0075300D01*
X0128900Y0078700D01*
X0127667Y0078700D01*
X0126986Y0078018D02*
X0096000Y0078018D01*
X0096000Y0077420D02*
X0126387Y0077420D01*
X0125789Y0076821D02*
X0096000Y0076821D01*
X0096000Y0076223D02*
X0125500Y0076223D01*
X0125500Y0075624D02*
X0096000Y0075624D01*
X0096000Y0075026D02*
X0128900Y0075026D01*
X0128900Y0075624D02*
X0129500Y0075624D01*
X0129500Y0075300D02*
X0129500Y0078700D01*
X0130733Y0078700D01*
X0132900Y0076533D01*
X0132900Y0075300D01*
X0129500Y0075300D01*
X0129500Y0075026D02*
X0137400Y0075026D01*
X0137400Y0075624D02*
X0132900Y0075624D01*
X0132900Y0076223D02*
X0137400Y0076223D01*
X0137400Y0076821D02*
X0132611Y0076821D01*
X0132013Y0077420D02*
X0137400Y0077420D01*
X0137400Y0078018D02*
X0131414Y0078018D01*
X0130816Y0078617D02*
X0137400Y0078617D01*
X0137400Y0074427D02*
X0132900Y0074427D01*
X0132900Y0073829D02*
X0137400Y0073829D01*
X0137400Y0073230D02*
X0132663Y0073230D01*
X0132064Y0072632D02*
X0137400Y0072632D01*
X0137400Y0072033D02*
X0131466Y0072033D01*
X0130867Y0071435D02*
X0137400Y0071435D01*
X0137400Y0070836D02*
X0096000Y0070836D01*
X0096000Y0070238D02*
X0137400Y0070238D01*
X0137400Y0069639D02*
X0096000Y0069639D01*
X0096000Y0069041D02*
X0137400Y0069041D01*
X0137400Y0068442D02*
X0131273Y0068442D01*
X0130815Y0068900D02*
X0127585Y0068900D01*
X0125300Y0066615D01*
X0125300Y0063385D01*
X0127585Y0061100D01*
X0130815Y0061100D01*
X0133100Y0063385D01*
X0133100Y0066615D01*
X0130815Y0068900D01*
X0131872Y0067844D02*
X0137400Y0067844D01*
X0137400Y0067245D02*
X0132470Y0067245D01*
X0133069Y0066647D02*
X0137400Y0066647D01*
X0137400Y0066048D02*
X0133100Y0066048D01*
X0133100Y0065450D02*
X0137400Y0065450D01*
X0137400Y0064851D02*
X0133100Y0064851D01*
X0133100Y0064253D02*
X0137400Y0064253D01*
X0137400Y0063654D02*
X0133100Y0063654D01*
X0132771Y0063056D02*
X0137400Y0063056D01*
X0137400Y0062457D02*
X0132173Y0062457D01*
X0131574Y0061859D02*
X0137400Y0061859D01*
X0137400Y0061260D02*
X0130976Y0061260D01*
X0127425Y0061260D02*
X0119307Y0061260D01*
X0119400Y0061034D02*
X0118608Y0062946D01*
X0117146Y0064408D01*
X0115234Y0065200D01*
X0113166Y0065200D01*
X0111254Y0064408D01*
X0109792Y0062946D01*
X0109200Y0061517D01*
X0108608Y0062946D01*
X0107146Y0064408D01*
X0105234Y0065200D01*
X0103166Y0065200D01*
X0101254Y0064408D01*
X0099792Y0062946D01*
X0099000Y0061034D01*
X0099000Y0058966D01*
X0099792Y0057054D01*
X0101254Y0055592D01*
X0103166Y0054800D01*
X0105234Y0054800D01*
X0107146Y0055592D01*
X0108608Y0057054D01*
X0109200Y0058483D01*
X0109792Y0057054D01*
X0111254Y0055592D01*
X0113166Y0054800D01*
X0115234Y0054800D01*
X0117146Y0055592D01*
X0118608Y0057054D01*
X0119400Y0058966D01*
X0119400Y0061034D01*
X0119400Y0060662D02*
X0137400Y0060662D01*
X0137400Y0060063D02*
X0119400Y0060063D01*
X0119400Y0059465D02*
X0137400Y0059465D01*
X0137400Y0058866D02*
X0119359Y0058866D01*
X0119111Y0058268D02*
X0137400Y0058268D01*
X0137400Y0057669D02*
X0118863Y0057669D01*
X0118615Y0057070D02*
X0137400Y0057070D01*
X0137400Y0056472D02*
X0118026Y0056472D01*
X0117427Y0055873D02*
X0137400Y0055873D01*
X0137400Y0055275D02*
X0116381Y0055275D01*
X0112019Y0055275D02*
X0106381Y0055275D01*
X0107427Y0055873D02*
X0110973Y0055873D01*
X0110374Y0056472D02*
X0108026Y0056472D01*
X0108615Y0057070D02*
X0109785Y0057070D01*
X0109537Y0057669D02*
X0108863Y0057669D01*
X0109111Y0058268D02*
X0109289Y0058268D01*
X0109341Y0061859D02*
X0109059Y0061859D01*
X0108811Y0062457D02*
X0109589Y0062457D01*
X0109902Y0063056D02*
X0108498Y0063056D01*
X0107900Y0063654D02*
X0110500Y0063654D01*
X0111099Y0064253D02*
X0107301Y0064253D01*
X0106077Y0064851D02*
X0112323Y0064851D01*
X0116077Y0064851D02*
X0125300Y0064851D01*
X0125300Y0064253D02*
X0117301Y0064253D01*
X0117900Y0063654D02*
X0125300Y0063654D01*
X0125629Y0063056D02*
X0118498Y0063056D01*
X0118811Y0062457D02*
X0126228Y0062457D01*
X0126826Y0061859D02*
X0119059Y0061859D01*
X0125300Y0065450D02*
X0096000Y0065450D01*
X0096000Y0066048D02*
X0125300Y0066048D01*
X0125331Y0066647D02*
X0096000Y0066647D01*
X0096000Y0067245D02*
X0125930Y0067245D01*
X0126528Y0067844D02*
X0096000Y0067844D01*
X0096000Y0068442D02*
X0127127Y0068442D01*
X0127533Y0071435D02*
X0096000Y0071435D01*
X0096000Y0072033D02*
X0126934Y0072033D01*
X0126336Y0072632D02*
X0096000Y0072632D01*
X0096000Y0073230D02*
X0125737Y0073230D01*
X0125500Y0073829D02*
X0096000Y0073829D01*
X0096000Y0074427D02*
X0125500Y0074427D01*
X0128900Y0074427D02*
X0129500Y0074427D01*
X0129500Y0073829D02*
X0128900Y0073829D01*
X0128900Y0073230D02*
X0129500Y0073230D01*
X0129500Y0072632D02*
X0128900Y0072632D01*
X0128900Y0072033D02*
X0129500Y0072033D01*
X0129500Y0071435D02*
X0128900Y0071435D01*
X0128900Y0076223D02*
X0129500Y0076223D01*
X0129500Y0076821D02*
X0128900Y0076821D01*
X0128900Y0077420D02*
X0129500Y0077420D01*
X0129500Y0078018D02*
X0128900Y0078018D01*
X0128900Y0078617D02*
X0129500Y0078617D01*
X0126900Y0091784D02*
X0119089Y0091784D01*
X0118842Y0092383D02*
X0126302Y0092383D01*
X0125703Y0092981D02*
X0118573Y0092981D01*
X0117974Y0093580D02*
X0125300Y0093580D01*
X0125300Y0094178D02*
X0117376Y0094178D01*
X0125300Y0095974D02*
X0096000Y0095974D01*
X0096000Y0096572D02*
X0125300Y0096572D01*
X0125855Y0097171D02*
X0096000Y0097171D01*
X0096000Y0097769D02*
X0126454Y0097769D01*
X0127052Y0098368D02*
X0096000Y0098368D01*
X0087400Y0098368D02*
X0083611Y0098368D01*
X0083859Y0098966D02*
X0087400Y0098966D01*
X0087400Y0099565D02*
X0083900Y0099565D01*
X0083900Y0100163D02*
X0087400Y0100163D01*
X0087400Y0100762D02*
X0083900Y0100762D01*
X0083724Y0101360D02*
X0087400Y0101360D01*
X0087400Y0101959D02*
X0083476Y0101959D01*
X0083228Y0102557D02*
X0087400Y0102557D01*
X0087400Y0103156D02*
X0082691Y0103156D01*
X0082092Y0103754D02*
X0087400Y0103754D01*
X0087400Y0104353D02*
X0080973Y0104353D01*
X0080738Y0105550D02*
X0087400Y0105550D01*
X0087400Y0106148D02*
X0081995Y0106148D01*
X0082594Y0106747D02*
X0087400Y0106747D01*
X0087400Y0107345D02*
X0083188Y0107345D01*
X0083436Y0107944D02*
X0087400Y0107944D01*
X0087400Y0108542D02*
X0083684Y0108542D01*
X0083900Y0109141D02*
X0087400Y0109141D01*
X0087400Y0109739D02*
X0083900Y0109739D01*
X0083900Y0110338D02*
X0087400Y0110338D01*
X0087400Y0110937D02*
X0083899Y0110937D01*
X0083651Y0111535D02*
X0087400Y0111535D01*
X0087400Y0112134D02*
X0083404Y0112134D01*
X0083115Y0112732D02*
X0087400Y0112732D01*
X0085930Y0115725D02*
X0081160Y0115725D01*
X0082170Y0116323D02*
X0085331Y0116323D01*
X0084733Y0116922D02*
X0082768Y0116922D01*
X0083260Y0117520D02*
X0084134Y0117520D01*
X0083536Y0118119D02*
X0083508Y0118119D01*
X0084200Y0120000D02*
X0079200Y0120000D01*
X0080137Y0125301D02*
X0081354Y0125301D01*
X0079200Y0130000D02*
X0094200Y0115000D01*
X0094200Y0040000D01*
X0089200Y0035000D01*
X0074200Y0035000D01*
X0076049Y0030137D02*
X0137400Y0030137D01*
X0137400Y0029539D02*
X0076830Y0029539D01*
X0077613Y0028940D02*
X0137400Y0028940D01*
X0137400Y0028342D02*
X0078212Y0028342D01*
X0078692Y0027743D02*
X0137400Y0027743D01*
X0137400Y0027145D02*
X0078940Y0027145D01*
X0079188Y0026546D02*
X0137400Y0026546D01*
X0137400Y0025948D02*
X0079400Y0025948D01*
X0079400Y0025349D02*
X0137400Y0025349D01*
X0137400Y0024751D02*
X0079400Y0024751D01*
X0079400Y0024152D02*
X0137400Y0024152D01*
X0137400Y0023554D02*
X0079229Y0023554D01*
X0078982Y0022955D02*
X0137400Y0022955D01*
X0137400Y0022357D02*
X0078734Y0022357D01*
X0078312Y0021758D02*
X0137400Y0021758D01*
X0137400Y0021160D02*
X0077714Y0021160D01*
X0077072Y0020561D02*
X0137400Y0020561D01*
X0137400Y0019963D02*
X0075627Y0019963D01*
X0077290Y0030736D02*
X0137400Y0030736D01*
X0137400Y0031334D02*
X0077888Y0031334D01*
X0078487Y0031933D02*
X0137400Y0031933D01*
X0137400Y0032532D02*
X0078806Y0032532D01*
X0079054Y0033130D02*
X0137400Y0033130D01*
X0137400Y0033729D02*
X0090474Y0033729D01*
X0091073Y0034327D02*
X0137400Y0034327D01*
X0137400Y0034926D02*
X0091671Y0034926D01*
X0092270Y0035524D02*
X0137400Y0035524D01*
X0137400Y0036123D02*
X0092868Y0036123D01*
X0093467Y0036721D02*
X0137400Y0036721D01*
X0137400Y0037320D02*
X0094065Y0037320D01*
X0094664Y0037918D02*
X0137400Y0037918D01*
X0137400Y0038517D02*
X0095262Y0038517D01*
X0095861Y0039115D02*
X0137400Y0039115D01*
X0137400Y0039714D02*
X0096000Y0039714D01*
X0096000Y0040312D02*
X0137400Y0040312D01*
X0137400Y0040911D02*
X0096000Y0040911D01*
X0096000Y0041509D02*
X0127458Y0041509D01*
X0127667Y0041300D02*
X0125500Y0043467D01*
X0125500Y0044700D01*
X0128900Y0044700D01*
X0128900Y0045300D01*
X0125500Y0045300D01*
X0125500Y0046533D01*
X0127667Y0048700D01*
X0128900Y0048700D01*
X0128900Y0045300D01*
X0129500Y0045300D01*
X0129500Y0048700D01*
X0130733Y0048700D01*
X0132900Y0046533D01*
X0132900Y0045300D01*
X0129500Y0045300D01*
X0129500Y0044700D01*
X0129500Y0041300D01*
X0130733Y0041300D01*
X0132900Y0043467D01*
X0132900Y0044700D01*
X0129500Y0044700D01*
X0128900Y0044700D01*
X0128900Y0041300D01*
X0127667Y0041300D01*
X0126860Y0042108D02*
X0096000Y0042108D01*
X0096000Y0042706D02*
X0126261Y0042706D01*
X0125663Y0043305D02*
X0096000Y0043305D01*
X0096000Y0043903D02*
X0125500Y0043903D01*
X0125500Y0044502D02*
X0096000Y0044502D01*
X0096000Y0045100D02*
X0128900Y0045100D01*
X0128900Y0044502D02*
X0129500Y0044502D01*
X0129500Y0045100D02*
X0137400Y0045100D01*
X0137400Y0044502D02*
X0132900Y0044502D01*
X0132900Y0043903D02*
X0137400Y0043903D01*
X0137400Y0043305D02*
X0132737Y0043305D01*
X0132139Y0042706D02*
X0137400Y0042706D01*
X0137400Y0042108D02*
X0131540Y0042108D01*
X0130942Y0041509D02*
X0137400Y0041509D01*
X0137400Y0045699D02*
X0132900Y0045699D01*
X0132900Y0046297D02*
X0137400Y0046297D01*
X0137400Y0046896D02*
X0132537Y0046896D01*
X0131938Y0047494D02*
X0137400Y0047494D01*
X0137400Y0048093D02*
X0131340Y0048093D01*
X0130741Y0048691D02*
X0137400Y0048691D01*
X0137400Y0049290D02*
X0096000Y0049290D01*
X0096000Y0049888D02*
X0137400Y0049888D01*
X0137400Y0050487D02*
X0096000Y0050487D01*
X0096000Y0051085D02*
X0137400Y0051085D01*
X0137400Y0051684D02*
X0096000Y0051684D01*
X0096000Y0052282D02*
X0137400Y0052282D01*
X0137400Y0052881D02*
X0096000Y0052881D01*
X0096000Y0053479D02*
X0137400Y0053479D01*
X0137400Y0054078D02*
X0096000Y0054078D01*
X0096000Y0054676D02*
X0137400Y0054676D01*
X0129500Y0048691D02*
X0128900Y0048691D01*
X0128900Y0048093D02*
X0129500Y0048093D01*
X0129500Y0047494D02*
X0128900Y0047494D01*
X0128900Y0046896D02*
X0129500Y0046896D01*
X0129500Y0046297D02*
X0128900Y0046297D01*
X0128900Y0045699D02*
X0129500Y0045699D01*
X0129500Y0043903D02*
X0128900Y0043903D01*
X0128900Y0043305D02*
X0129500Y0043305D01*
X0129500Y0042706D02*
X0128900Y0042706D01*
X0128900Y0042108D02*
X0129500Y0042108D01*
X0129500Y0041509D02*
X0128900Y0041509D01*
X0125500Y0045699D02*
X0096000Y0045699D01*
X0096000Y0046297D02*
X0125500Y0046297D01*
X0125863Y0046896D02*
X0096000Y0046896D01*
X0096000Y0047494D02*
X0126462Y0047494D01*
X0127060Y0048093D02*
X0096000Y0048093D01*
X0096000Y0048691D02*
X0127659Y0048691D01*
X0137400Y0019364D02*
X0006000Y0019364D01*
X0006000Y0018766D02*
X0137400Y0018766D01*
X0137400Y0018167D02*
X0006000Y0018167D01*
X0006000Y0017569D02*
X0137400Y0017569D01*
X0137400Y0016970D02*
X0006000Y0016970D01*
X0006000Y0016372D02*
X0137400Y0016372D01*
X0137400Y0015773D02*
X0006000Y0015773D01*
X0006000Y0015175D02*
X0137400Y0015175D01*
X0137400Y0014576D02*
X0006000Y0014576D01*
X0006000Y0013978D02*
X0137400Y0013978D01*
X0137400Y0013379D02*
X0006000Y0013379D01*
X0006000Y0012781D02*
X0137400Y0012781D01*
X0137400Y0012182D02*
X0006000Y0012182D01*
X0006000Y0011584D02*
X0137400Y0011584D01*
X0137400Y0010985D02*
X0006000Y0010985D01*
X0006000Y0010387D02*
X0137400Y0010387D01*
X0137400Y0009788D02*
X0006000Y0009788D01*
X0006000Y0009190D02*
X0137400Y0009190D01*
X0137400Y0008591D02*
X0006000Y0008591D01*
X0006000Y0007993D02*
X0137400Y0007993D01*
X0137400Y0007394D02*
X0006000Y0007394D01*
X0006000Y0021160D02*
X0052525Y0021160D01*
X0051926Y0021758D02*
X0006000Y0021758D01*
X0006000Y0022357D02*
X0051328Y0022357D01*
X0050729Y0022955D02*
X0006000Y0022955D01*
X0006000Y0023554D02*
X0050300Y0023554D01*
X0050300Y0024152D02*
X0006000Y0024152D01*
X0006000Y0024751D02*
X0050300Y0024751D01*
X0050300Y0025349D02*
X0006000Y0025349D01*
X0006000Y0025948D02*
X0050300Y0025948D01*
X0050300Y0026546D02*
X0006000Y0026546D01*
X0006000Y0027145D02*
X0050830Y0027145D01*
X0051428Y0027743D02*
X0006000Y0027743D01*
X0006000Y0028342D02*
X0052027Y0028342D01*
X0059285Y0036721D02*
X0029305Y0036721D01*
X0029208Y0037320D02*
X0059532Y0037320D01*
X0059780Y0037918D02*
X0029013Y0037918D01*
X0028737Y0038517D02*
X0060363Y0038517D01*
X0060961Y0039115D02*
X0028363Y0039115D01*
X0027856Y0039714D02*
X0061992Y0039714D01*
X0061929Y0040312D02*
X0027148Y0040312D01*
X0026030Y0040911D02*
X0060935Y0040911D01*
X0060337Y0041509D02*
X0056225Y0041509D01*
X0056823Y0042108D02*
X0059770Y0042108D01*
X0059522Y0042706D02*
X0057422Y0042706D01*
X0054200Y0045000D02*
X0064200Y0045000D01*
X0060537Y0048691D02*
X0056024Y0048691D01*
X0056623Y0048093D02*
X0059939Y0048093D01*
X0059605Y0047494D02*
X0057221Y0047494D01*
X0057820Y0046896D02*
X0059357Y0046896D01*
X0065987Y0049888D02*
X0067400Y0049888D01*
X0067400Y0049290D02*
X0067264Y0049290D01*
X0067400Y0054078D02*
X0026420Y0054078D01*
X0027489Y0054676D02*
X0067400Y0054676D01*
X0067400Y0064851D02*
X0036005Y0064851D01*
X0037444Y0065450D02*
X0067400Y0065450D01*
X0067400Y0066048D02*
X0038244Y0066048D01*
X0038815Y0066647D02*
X0067400Y0066647D01*
X0067400Y0067245D02*
X0039245Y0067245D01*
X0039550Y0067844D02*
X0067400Y0067844D01*
X0067400Y0068442D02*
X0039767Y0068442D01*
X0039914Y0069041D02*
X0067400Y0069041D01*
X0067400Y0069639D02*
X0040000Y0069639D01*
X0031956Y0065450D02*
X0026928Y0065450D01*
X0027526Y0066048D02*
X0031157Y0066048D01*
X0030585Y0066647D02*
X0028125Y0066647D01*
X0028512Y0067245D02*
X0030155Y0067245D01*
X0029850Y0067844D02*
X0028760Y0067844D01*
X0029008Y0068442D02*
X0029633Y0068442D01*
X0029486Y0069041D02*
X0029200Y0069041D01*
X0029200Y0069639D02*
X0029400Y0069639D01*
X0021337Y0075026D02*
X0011720Y0075026D01*
X0009023Y0072632D02*
X0006000Y0072632D01*
X0006000Y0073230D02*
X0008424Y0073230D01*
X0007826Y0073829D02*
X0006000Y0073829D01*
X0006000Y0074427D02*
X0007400Y0074427D01*
X0007400Y0075026D02*
X0006000Y0075026D01*
X0006000Y0075624D02*
X0007400Y0075624D01*
X0007400Y0076223D02*
X0006000Y0076223D01*
X0006000Y0076821D02*
X0007400Y0076821D01*
X0007400Y0077420D02*
X0006000Y0077420D01*
X0006000Y0078018D02*
X0007400Y0078018D01*
X0007400Y0078617D02*
X0006000Y0078617D01*
X0006000Y0079215D02*
X0007400Y0079215D01*
X0007400Y0079814D02*
X0006000Y0079814D01*
X0006000Y0080412D02*
X0007400Y0080412D01*
X0007400Y0081011D02*
X0006000Y0081011D01*
X0006000Y0081609D02*
X0007400Y0081609D01*
X0007400Y0082208D02*
X0006000Y0082208D01*
X0006000Y0082806D02*
X0007400Y0082806D01*
X0007400Y0083405D02*
X0006000Y0083405D01*
X0006000Y0084003D02*
X0007400Y0084003D01*
X0007400Y0084602D02*
X0006000Y0084602D01*
X0006000Y0085201D02*
X0007400Y0085201D01*
X0007400Y0085799D02*
X0006000Y0085799D01*
X0006000Y0086398D02*
X0007400Y0086398D01*
X0007400Y0086996D02*
X0006000Y0086996D01*
X0006000Y0087595D02*
X0007400Y0087595D01*
X0007400Y0088193D02*
X0006000Y0088193D01*
X0006000Y0088792D02*
X0007400Y0088792D01*
X0007400Y0089390D02*
X0006000Y0089390D01*
X0006000Y0089989D02*
X0007400Y0089989D01*
X0007400Y0090587D02*
X0006000Y0090587D01*
X0006000Y0091186D02*
X0007400Y0091186D01*
X0007400Y0091784D02*
X0006000Y0091784D01*
X0006000Y0092383D02*
X0007400Y0092383D01*
X0007400Y0092981D02*
X0006000Y0092981D01*
X0006000Y0093580D02*
X0007400Y0093580D01*
X0007400Y0094178D02*
X0006000Y0094178D01*
X0006000Y0094777D02*
X0007400Y0094777D01*
X0007400Y0095375D02*
X0006000Y0095375D01*
X0006000Y0095974D02*
X0007400Y0095974D01*
X0007400Y0096572D02*
X0006000Y0096572D01*
X0006000Y0097171D02*
X0007400Y0097171D01*
X0007400Y0097769D02*
X0006000Y0097769D01*
X0006000Y0098368D02*
X0007400Y0098368D01*
X0007400Y0098966D02*
X0006000Y0098966D01*
X0006000Y0099565D02*
X0007400Y0099565D01*
X0007400Y0100163D02*
X0006000Y0100163D01*
X0006000Y0100762D02*
X0007400Y0100762D01*
X0007400Y0101360D02*
X0006000Y0101360D01*
X0006000Y0101959D02*
X0007400Y0101959D01*
X0007400Y0102557D02*
X0006000Y0102557D01*
X0006000Y0103156D02*
X0007400Y0103156D01*
X0007400Y0103754D02*
X0006000Y0103754D01*
X0006000Y0104353D02*
X0007400Y0104353D01*
X0007400Y0104951D02*
X0006000Y0104951D01*
X0006000Y0105550D02*
X0007400Y0105550D01*
X0007400Y0106148D02*
X0006000Y0106148D01*
X0006000Y0106747D02*
X0007400Y0106747D01*
X0007400Y0107345D02*
X0006000Y0107345D01*
X0006000Y0107944D02*
X0007400Y0107944D01*
X0007400Y0108542D02*
X0006000Y0108542D01*
X0006000Y0109141D02*
X0007400Y0109141D01*
X0007400Y0109739D02*
X0006000Y0109739D01*
X0006000Y0110338D02*
X0007400Y0110338D01*
X0007400Y0110937D02*
X0006000Y0110937D01*
X0006000Y0111535D02*
X0007400Y0111535D01*
X0007400Y0112134D02*
X0006000Y0112134D01*
X0006000Y0112732D02*
X0007400Y0112732D01*
X0007400Y0113331D02*
X0006000Y0113331D01*
X0006000Y0113929D02*
X0007400Y0113929D01*
X0007400Y0114528D02*
X0006000Y0114528D01*
X0006000Y0115126D02*
X0007400Y0115126D01*
X0007400Y0115725D02*
X0006000Y0115725D01*
X0006000Y0116323D02*
X0007400Y0116323D01*
X0007400Y0116922D02*
X0006000Y0116922D01*
X0006000Y0117520D02*
X0007400Y0117520D01*
X0007400Y0118119D02*
X0006000Y0118119D01*
X0006000Y0118717D02*
X0007400Y0118717D01*
X0007400Y0119316D02*
X0006000Y0119316D01*
X0006000Y0119914D02*
X0007400Y0119914D01*
X0007400Y0120513D02*
X0006000Y0120513D01*
X0006000Y0121111D02*
X0007400Y0121111D01*
X0007400Y0121710D02*
X0006000Y0121710D01*
X0006000Y0122308D02*
X0007400Y0122308D01*
X0007400Y0122907D02*
X0006000Y0122907D01*
X0006000Y0123505D02*
X0007400Y0123505D01*
X0007400Y0124104D02*
X0006000Y0124104D01*
X0006000Y0124702D02*
X0007400Y0124702D01*
X0007400Y0125301D02*
X0006000Y0125301D01*
X0006000Y0125899D02*
X0007554Y0125899D01*
X0008152Y0126498D02*
X0006000Y0126498D01*
X0006000Y0127096D02*
X0008751Y0127096D01*
X0009349Y0127695D02*
X0006000Y0127695D01*
X0006000Y0128293D02*
X0009948Y0128293D01*
X0010546Y0128892D02*
X0006000Y0128892D01*
X0006000Y0129490D02*
X0011145Y0129490D01*
X0011566Y0130089D02*
X0006000Y0130089D01*
X0006000Y0130687D02*
X0010967Y0130687D01*
X0010369Y0131286D02*
X0006000Y0131286D01*
X0006000Y0131884D02*
X0009770Y0131884D01*
X0009172Y0132483D02*
X0006000Y0132483D01*
X0006000Y0133081D02*
X0008573Y0133081D01*
X0007975Y0133680D02*
X0006000Y0133680D01*
X0006000Y0134278D02*
X0007400Y0134278D01*
X0007400Y0134877D02*
X0006000Y0134877D01*
X0006000Y0135475D02*
X0007400Y0135475D01*
X0007400Y0136074D02*
X0006000Y0136074D01*
X0006000Y0136672D02*
X0007400Y0136672D01*
X0007400Y0137271D02*
X0006000Y0137271D01*
X0006000Y0137870D02*
X0007400Y0137870D01*
X0007400Y0138468D02*
X0006000Y0138468D01*
X0006000Y0139067D02*
X0007400Y0139067D01*
X0007400Y0139665D02*
X0006000Y0139665D01*
X0006000Y0140264D02*
X0007400Y0140264D01*
X0007400Y0140862D02*
X0006000Y0140862D01*
X0006000Y0141461D02*
X0007400Y0141461D01*
X0007400Y0142059D02*
X0006000Y0142059D01*
X0006000Y0142658D02*
X0007400Y0142658D01*
X0007400Y0143256D02*
X0006000Y0143256D01*
X0006000Y0143855D02*
X0007400Y0143855D01*
X0007400Y0144453D02*
X0006000Y0144453D01*
X0006000Y0145052D02*
X0007400Y0145052D01*
X0007400Y0145650D02*
X0006000Y0145650D01*
X0006000Y0146249D02*
X0007400Y0146249D01*
X0007400Y0146847D02*
X0006000Y0146847D01*
X0006000Y0147446D02*
X0007400Y0147446D01*
X0007400Y0148044D02*
X0006000Y0148044D01*
X0006000Y0148643D02*
X0007400Y0148643D01*
X0007400Y0149241D02*
X0006000Y0149241D01*
X0006000Y0149840D02*
X0007400Y0149840D01*
X0007400Y0150438D02*
X0006000Y0150438D01*
X0006000Y0151037D02*
X0007691Y0151037D01*
X0008290Y0151635D02*
X0006000Y0151635D01*
X0006000Y0152234D02*
X0008888Y0152234D01*
X0009487Y0152832D02*
X0006000Y0152832D01*
X0006000Y0161810D02*
X0044863Y0161810D01*
X0045110Y0162408D02*
X0006000Y0162408D01*
X0006000Y0163007D02*
X0045560Y0163007D01*
X0046159Y0163605D02*
X0006000Y0163605D01*
X0006000Y0164204D02*
X0047068Y0164204D01*
X0048021Y0165401D02*
X0006000Y0165401D01*
X0006000Y0164803D02*
X0117206Y0164803D01*
X0116715Y0165401D02*
X0080379Y0165401D01*
X0080135Y0165300D02*
X0081862Y0166016D01*
X0083184Y0167338D01*
X0083900Y0169065D01*
X0083900Y0170935D01*
X0083184Y0172662D01*
X0081862Y0173984D01*
X0080135Y0174700D01*
X0078265Y0174700D01*
X0076538Y0173984D01*
X0075216Y0172662D01*
X0074500Y0170935D01*
X0074500Y0169065D01*
X0075216Y0167338D01*
X0076538Y0166016D01*
X0078265Y0165300D01*
X0080135Y0165300D01*
X0079500Y0164204D02*
X0078900Y0164204D01*
X0078900Y0163605D02*
X0079500Y0163605D01*
X0079500Y0163007D02*
X0078900Y0163007D01*
X0078900Y0162408D02*
X0079500Y0162408D01*
X0079500Y0161810D02*
X0078900Y0161810D01*
X0078900Y0161211D02*
X0079500Y0161211D01*
X0079500Y0159416D02*
X0078900Y0159416D01*
X0078900Y0158817D02*
X0079500Y0158817D01*
X0079500Y0158219D02*
X0078900Y0158219D01*
X0078900Y0157620D02*
X0079500Y0157620D01*
X0079500Y0157022D02*
X0078900Y0157022D01*
X0078900Y0156423D02*
X0079500Y0156423D01*
X0079500Y0155825D02*
X0078900Y0155825D01*
X0077488Y0155825D02*
X0051402Y0155825D01*
X0051204Y0154029D02*
X0076646Y0154029D01*
X0075984Y0153431D02*
X0052133Y0153431D01*
X0052705Y0152832D02*
X0075386Y0152832D01*
X0075038Y0152234D02*
X0053112Y0152234D01*
X0053400Y0151635D02*
X0074790Y0151635D01*
X0074542Y0151037D02*
X0053592Y0151037D01*
X0053687Y0150438D02*
X0074500Y0150438D01*
X0078091Y0154628D02*
X0021131Y0154628D01*
X0006000Y0166000D02*
X0046576Y0166000D01*
X0046538Y0166016D02*
X0048265Y0165300D01*
X0050135Y0165300D01*
X0051862Y0166016D01*
X0053184Y0167338D01*
X0053900Y0169065D01*
X0053900Y0170935D01*
X0053184Y0172662D01*
X0051862Y0173984D01*
X0050135Y0174700D01*
X0048265Y0174700D01*
X0046538Y0173984D01*
X0045216Y0172662D01*
X0044500Y0170935D01*
X0044500Y0169065D01*
X0045216Y0167338D01*
X0046538Y0166016D01*
X0045955Y0166598D02*
X0006000Y0166598D01*
X0006000Y0167197D02*
X0045357Y0167197D01*
X0045026Y0167795D02*
X0006000Y0167795D01*
X0006000Y0168394D02*
X0044778Y0168394D01*
X0044530Y0168992D02*
X0006000Y0168992D01*
X0006000Y0169591D02*
X0044500Y0169591D01*
X0044500Y0170189D02*
X0006000Y0170189D01*
X0006000Y0170788D02*
X0044500Y0170788D01*
X0044687Y0171386D02*
X0006000Y0171386D01*
X0006000Y0171985D02*
X0044935Y0171985D01*
X0045183Y0172583D02*
X0006000Y0172583D01*
X0006000Y0173182D02*
X0045735Y0173182D01*
X0046333Y0173780D02*
X0006000Y0173780D01*
X0006000Y0174379D02*
X0047489Y0174379D01*
X0047599Y0175576D02*
X0006000Y0175576D01*
X0006000Y0176174D02*
X0046379Y0176174D01*
X0046538Y0176016D02*
X0048265Y0175300D01*
X0050135Y0175300D01*
X0051862Y0176016D01*
X0053184Y0177338D01*
X0053900Y0179065D01*
X0053900Y0180935D01*
X0053184Y0182662D01*
X0051862Y0183984D01*
X0050135Y0184700D01*
X0048265Y0184700D01*
X0046538Y0183984D01*
X0045216Y0182662D01*
X0044500Y0180935D01*
X0044500Y0179065D01*
X0045216Y0177338D01*
X0046538Y0176016D01*
X0045780Y0176773D02*
X0006000Y0176773D01*
X0006000Y0177371D02*
X0045202Y0177371D01*
X0044954Y0177970D02*
X0006000Y0177970D01*
X0006000Y0178568D02*
X0044706Y0178568D01*
X0044500Y0179167D02*
X0006000Y0179167D01*
X0006000Y0179765D02*
X0044500Y0179765D01*
X0044500Y0180364D02*
X0006000Y0180364D01*
X0006000Y0180962D02*
X0044511Y0180962D01*
X0044759Y0181561D02*
X0006000Y0181561D01*
X0006000Y0182159D02*
X0045007Y0182159D01*
X0045311Y0182758D02*
X0006000Y0182758D01*
X0006000Y0183356D02*
X0045910Y0183356D01*
X0046508Y0183955D02*
X0006000Y0183955D01*
X0006000Y0184553D02*
X0047911Y0184553D01*
X0048265Y0185300D02*
X0050135Y0185300D01*
X0051862Y0186016D01*
X0053184Y0187338D01*
X0053900Y0189065D01*
X0053900Y0190935D01*
X0053184Y0192662D01*
X0051862Y0193984D01*
X0050135Y0194700D01*
X0048265Y0194700D01*
X0046538Y0193984D01*
X0045216Y0192662D01*
X0044500Y0190935D01*
X0044500Y0189065D01*
X0045216Y0187338D01*
X0046538Y0186016D01*
X0048265Y0185300D01*
X0047178Y0185750D02*
X0006000Y0185750D01*
X0006000Y0185152D02*
X0117316Y0185152D01*
X0116605Y0184553D02*
X0080489Y0184553D01*
X0080135Y0184700D02*
X0078265Y0184700D01*
X0076538Y0183984D01*
X0075216Y0182662D01*
X0074500Y0180935D01*
X0074500Y0179065D01*
X0075216Y0177338D01*
X0076538Y0176016D01*
X0078265Y0175300D01*
X0080135Y0175300D01*
X0081862Y0176016D01*
X0083184Y0177338D01*
X0083900Y0179065D01*
X0083900Y0180935D01*
X0083184Y0182662D01*
X0081862Y0183984D01*
X0080135Y0184700D01*
X0080135Y0185300D02*
X0081862Y0186016D01*
X0083184Y0187338D01*
X0083900Y0189065D01*
X0083900Y0190935D01*
X0083184Y0192662D01*
X0081862Y0193984D01*
X0080135Y0194700D01*
X0078265Y0194700D01*
X0076538Y0193984D01*
X0075216Y0192662D01*
X0074500Y0190935D01*
X0074500Y0189065D01*
X0075216Y0187338D01*
X0076538Y0186016D01*
X0078265Y0185300D01*
X0080135Y0185300D01*
X0081222Y0185750D02*
X0116096Y0185750D01*
X0115497Y0186349D02*
X0082196Y0186349D01*
X0082794Y0186947D02*
X0114899Y0186947D01*
X0114588Y0187546D02*
X0083271Y0187546D01*
X0083519Y0188144D02*
X0114340Y0188144D01*
X0114092Y0188743D02*
X0083767Y0188743D01*
X0083900Y0189341D02*
X0114000Y0189341D01*
X0114000Y0189940D02*
X0083900Y0189940D01*
X0083900Y0190539D02*
X0114000Y0190539D01*
X0114043Y0191137D02*
X0083816Y0191137D01*
X0083568Y0191736D02*
X0114290Y0191736D01*
X0114538Y0192334D02*
X0083320Y0192334D01*
X0082914Y0192933D02*
X0114786Y0192933D01*
X0115377Y0193531D02*
X0082316Y0193531D01*
X0081512Y0194130D02*
X0115976Y0194130D01*
X0117026Y0194728D02*
X0006000Y0194728D01*
X0006000Y0194130D02*
X0046888Y0194130D01*
X0046084Y0193531D02*
X0006000Y0193531D01*
X0006000Y0192933D02*
X0045486Y0192933D01*
X0045080Y0192334D02*
X0006000Y0192334D01*
X0006000Y0191736D02*
X0044832Y0191736D01*
X0044584Y0191137D02*
X0006000Y0191137D01*
X0006000Y0190539D02*
X0044500Y0190539D01*
X0044500Y0189940D02*
X0006000Y0189940D01*
X0006000Y0189341D02*
X0044500Y0189341D01*
X0044633Y0188743D02*
X0006000Y0188743D01*
X0006000Y0188144D02*
X0044881Y0188144D01*
X0045129Y0187546D02*
X0006000Y0187546D01*
X0006000Y0186947D02*
X0045606Y0186947D01*
X0046204Y0186349D02*
X0006000Y0186349D01*
X0006000Y0195327D02*
X0048201Y0195327D01*
X0048265Y0195300D02*
X0050135Y0195300D01*
X0051862Y0196016D01*
X0053184Y0197338D01*
X0053900Y0199065D01*
X0053900Y0200935D01*
X0053184Y0202662D01*
X0051862Y0203984D01*
X0050135Y0204700D01*
X0048265Y0204700D01*
X0046538Y0203984D01*
X0045216Y0202662D01*
X0044500Y0200935D01*
X0044500Y0199065D01*
X0045216Y0197338D01*
X0046538Y0196016D01*
X0048265Y0195300D01*
X0046756Y0195925D02*
X0006000Y0195925D01*
X0006000Y0196524D02*
X0046030Y0196524D01*
X0045431Y0197122D02*
X0006000Y0197122D01*
X0006000Y0197721D02*
X0045057Y0197721D01*
X0044809Y0198319D02*
X0006000Y0198319D01*
X0006000Y0198918D02*
X0044561Y0198918D01*
X0044500Y0199516D02*
X0006000Y0199516D01*
X0006000Y0200115D02*
X0044500Y0200115D01*
X0044500Y0200713D02*
X0006000Y0200713D01*
X0006000Y0201312D02*
X0044656Y0201312D01*
X0044904Y0201910D02*
X0006000Y0201910D01*
X0006000Y0202509D02*
X0045152Y0202509D01*
X0045660Y0203107D02*
X0006000Y0203107D01*
X0006000Y0203706D02*
X0046259Y0203706D01*
X0047310Y0204304D02*
X0006000Y0204304D01*
X0006000Y0204903D02*
X0117448Y0204903D01*
X0116473Y0205501D02*
X0080621Y0205501D01*
X0080135Y0205300D02*
X0081862Y0206016D01*
X0083184Y0207338D01*
X0083900Y0209065D01*
X0083900Y0210935D01*
X0083184Y0212662D01*
X0081862Y0213984D01*
X0080135Y0214700D01*
X0078265Y0214700D01*
X0076538Y0213984D01*
X0075216Y0212662D01*
X0074500Y0210935D01*
X0074500Y0209065D01*
X0075216Y0207338D01*
X0076538Y0206016D01*
X0078265Y0205300D01*
X0080135Y0205300D01*
X0080135Y0204700D02*
X0078265Y0204700D01*
X0076538Y0203984D01*
X0075216Y0202662D01*
X0074500Y0200935D01*
X0074500Y0199065D01*
X0075216Y0197338D01*
X0076538Y0196016D01*
X0078265Y0195300D01*
X0080135Y0195300D01*
X0081862Y0196016D01*
X0083184Y0197338D01*
X0083900Y0199065D01*
X0083900Y0200935D01*
X0083184Y0202662D01*
X0081862Y0203984D01*
X0080135Y0204700D01*
X0081090Y0204304D02*
X0116150Y0204304D01*
X0115552Y0203706D02*
X0082141Y0203706D01*
X0082740Y0203107D02*
X0114953Y0203107D01*
X0114611Y0202509D02*
X0083248Y0202509D01*
X0083496Y0201910D02*
X0114363Y0201910D01*
X0114115Y0201312D02*
X0083744Y0201312D01*
X0083900Y0200713D02*
X0114000Y0200713D01*
X0114000Y0200115D02*
X0083900Y0200115D01*
X0083900Y0199516D02*
X0114000Y0199516D01*
X0114020Y0198918D02*
X0083839Y0198918D01*
X0083591Y0198319D02*
X0114268Y0198319D01*
X0114516Y0197721D02*
X0083343Y0197721D01*
X0082969Y0197122D02*
X0114764Y0197122D01*
X0115322Y0196524D02*
X0082370Y0196524D01*
X0081644Y0195925D02*
X0115921Y0195925D01*
X0116894Y0195327D02*
X0080199Y0195327D01*
X0078201Y0195327D02*
X0050199Y0195327D01*
X0051644Y0195925D02*
X0076756Y0195925D01*
X0076030Y0196524D02*
X0052370Y0196524D01*
X0052969Y0197122D02*
X0075431Y0197122D01*
X0075057Y0197721D02*
X0053343Y0197721D01*
X0053591Y0198319D02*
X0074809Y0198319D01*
X0074561Y0198918D02*
X0053839Y0198918D01*
X0053900Y0199516D02*
X0074500Y0199516D01*
X0074500Y0200115D02*
X0053900Y0200115D01*
X0053900Y0200713D02*
X0074500Y0200713D01*
X0074656Y0201312D02*
X0053744Y0201312D01*
X0053496Y0201910D02*
X0074904Y0201910D01*
X0075152Y0202509D02*
X0053248Y0202509D01*
X0052740Y0203107D02*
X0075660Y0203107D01*
X0076259Y0203706D02*
X0052141Y0203706D01*
X0051090Y0204304D02*
X0077310Y0204304D01*
X0077779Y0205501D02*
X0050621Y0205501D01*
X0050135Y0205300D02*
X0051862Y0206016D01*
X0053184Y0207338D01*
X0053900Y0209065D01*
X0053900Y0210935D01*
X0053184Y0212662D01*
X0051862Y0213984D01*
X0050135Y0214700D01*
X0048265Y0214700D01*
X0046538Y0213984D01*
X0045216Y0212662D01*
X0044500Y0210935D01*
X0044500Y0209065D01*
X0045216Y0207338D01*
X0046538Y0206016D01*
X0048265Y0205300D01*
X0050135Y0205300D01*
X0051947Y0206100D02*
X0076453Y0206100D01*
X0075855Y0206698D02*
X0052545Y0206698D01*
X0053144Y0207297D02*
X0075256Y0207297D01*
X0074985Y0207895D02*
X0053415Y0207895D01*
X0053663Y0208494D02*
X0074737Y0208494D01*
X0074500Y0209092D02*
X0053900Y0209092D01*
X0053900Y0209691D02*
X0074500Y0209691D01*
X0074500Y0210289D02*
X0053900Y0210289D01*
X0053900Y0210888D02*
X0074500Y0210888D01*
X0074728Y0211486D02*
X0053672Y0211486D01*
X0053424Y0212085D02*
X0074976Y0212085D01*
X0075237Y0212683D02*
X0053163Y0212683D01*
X0052565Y0213282D02*
X0075835Y0213282D01*
X0076434Y0213880D02*
X0051966Y0213880D01*
X0050669Y0214479D02*
X0077732Y0214479D01*
X0078265Y0215300D02*
X0076538Y0216016D01*
X0075216Y0217338D01*
X0074500Y0219065D01*
X0074500Y0220935D01*
X0075216Y0222662D01*
X0076538Y0223984D01*
X0078265Y0224700D01*
X0080135Y0224700D01*
X0081862Y0223984D01*
X0083184Y0222662D01*
X0083900Y0220935D01*
X0083900Y0219065D01*
X0083184Y0217338D01*
X0081862Y0216016D01*
X0080135Y0215300D01*
X0078265Y0215300D01*
X0077357Y0215676D02*
X0051043Y0215676D01*
X0051862Y0216016D02*
X0053184Y0217338D01*
X0053900Y0219065D01*
X0053900Y0220935D01*
X0053184Y0222662D01*
X0051862Y0223984D01*
X0050135Y0224700D01*
X0048265Y0224700D01*
X0046538Y0223984D01*
X0045216Y0222662D01*
X0044500Y0220935D01*
X0044500Y0219065D01*
X0045216Y0217338D01*
X0046538Y0216016D01*
X0048265Y0215300D01*
X0050135Y0215300D01*
X0051862Y0216016D01*
X0052121Y0216274D02*
X0076279Y0216274D01*
X0075680Y0216873D02*
X0052720Y0216873D01*
X0053240Y0217472D02*
X0075160Y0217472D01*
X0074912Y0218070D02*
X0053488Y0218070D01*
X0053736Y0218669D02*
X0074664Y0218669D01*
X0074500Y0219267D02*
X0053900Y0219267D01*
X0053900Y0219866D02*
X0074500Y0219866D01*
X0074500Y0220464D02*
X0053900Y0220464D01*
X0053847Y0221063D02*
X0074553Y0221063D01*
X0074801Y0221661D02*
X0053599Y0221661D01*
X0053351Y0222260D02*
X0075049Y0222260D01*
X0075411Y0222858D02*
X0052989Y0222858D01*
X0052390Y0223457D02*
X0076010Y0223457D01*
X0076708Y0224055D02*
X0051692Y0224055D01*
X0050247Y0224654D02*
X0078153Y0224654D01*
X0080247Y0224654D02*
X0116847Y0224654D01*
X0117632Y0225252D02*
X0006000Y0225252D01*
X0006000Y0224654D02*
X0048153Y0224654D01*
X0046708Y0224055D02*
X0006000Y0224055D01*
X0006000Y0223457D02*
X0046010Y0223457D01*
X0045411Y0222858D02*
X0006000Y0222858D01*
X0006000Y0222260D02*
X0045049Y0222260D01*
X0044801Y0221661D02*
X0006000Y0221661D01*
X0006000Y0221063D02*
X0044553Y0221063D01*
X0044500Y0220464D02*
X0006000Y0220464D01*
X0006000Y0219866D02*
X0044500Y0219866D01*
X0044500Y0219267D02*
X0006000Y0219267D01*
X0006000Y0218669D02*
X0044664Y0218669D01*
X0044912Y0218070D02*
X0006000Y0218070D01*
X0006000Y0217472D02*
X0045160Y0217472D01*
X0045680Y0216873D02*
X0006000Y0216873D01*
X0006000Y0216274D02*
X0046279Y0216274D01*
X0047357Y0215676D02*
X0006000Y0215676D01*
X0006000Y0215077D02*
X0117496Y0215077D01*
X0116425Y0214479D02*
X0080669Y0214479D01*
X0081043Y0215676D02*
X0116170Y0215676D01*
X0115572Y0216274D02*
X0082121Y0216274D01*
X0082720Y0216873D02*
X0114973Y0216873D01*
X0114619Y0217472D02*
X0083240Y0217472D01*
X0083488Y0218070D02*
X0114371Y0218070D01*
X0114123Y0218669D02*
X0083736Y0218669D01*
X0083900Y0219267D02*
X0114000Y0219267D01*
X0114000Y0219866D02*
X0083900Y0219866D01*
X0083900Y0220464D02*
X0114000Y0220464D01*
X0114012Y0221063D02*
X0083847Y0221063D01*
X0083599Y0221661D02*
X0114260Y0221661D01*
X0114508Y0222260D02*
X0083351Y0222260D01*
X0082989Y0222858D02*
X0114755Y0222858D01*
X0115303Y0223457D02*
X0082390Y0223457D01*
X0081692Y0224055D02*
X0115901Y0224055D01*
X0116405Y0225851D02*
X0006000Y0225851D01*
X0006000Y0226449D02*
X0115680Y0226449D01*
X0115165Y0227048D02*
X0006000Y0227048D01*
X0006000Y0227646D02*
X0114788Y0227646D01*
X0114513Y0228245D02*
X0006000Y0228245D01*
X0006000Y0228843D02*
X0114321Y0228843D01*
X0114226Y0229442D02*
X0006000Y0229442D01*
X0006000Y0230040D02*
X0118900Y0230040D01*
X0115223Y0233033D02*
X0006000Y0233033D01*
X0006000Y0233631D02*
X0115760Y0233631D01*
X0116515Y0234230D02*
X0006000Y0234230D01*
X0006000Y0234828D02*
X0117880Y0234828D01*
X0114829Y0232434D02*
X0006000Y0232434D01*
X0006000Y0231836D02*
X0114539Y0231836D01*
X0114345Y0231237D02*
X0006000Y0231237D01*
X0006000Y0230639D02*
X0114239Y0230639D01*
X0121885Y0234230D02*
X0137400Y0234230D01*
X0137400Y0233631D02*
X0122640Y0233631D01*
X0123177Y0233033D02*
X0137400Y0233033D01*
X0137400Y0232434D02*
X0123571Y0232434D01*
X0123861Y0231836D02*
X0137400Y0231836D01*
X0137400Y0231237D02*
X0124055Y0231237D01*
X0124161Y0230639D02*
X0137400Y0230639D01*
X0115727Y0213880D02*
X0081966Y0213880D01*
X0082565Y0213282D02*
X0115128Y0213282D01*
X0114683Y0212683D02*
X0083163Y0212683D01*
X0083424Y0212085D02*
X0114435Y0212085D01*
X0114187Y0211486D02*
X0083672Y0211486D01*
X0083900Y0210888D02*
X0114000Y0210888D01*
X0114000Y0210289D02*
X0083900Y0210289D01*
X0083900Y0209691D02*
X0114000Y0209691D01*
X0114000Y0209092D02*
X0083900Y0209092D01*
X0083663Y0208494D02*
X0114195Y0208494D01*
X0114443Y0207895D02*
X0083415Y0207895D01*
X0083144Y0207297D02*
X0114691Y0207297D01*
X0115148Y0206698D02*
X0082545Y0206698D01*
X0081947Y0206100D02*
X0115746Y0206100D01*
X0115801Y0183955D02*
X0081892Y0183955D01*
X0082490Y0183356D02*
X0115202Y0183356D01*
X0114714Y0182758D02*
X0083089Y0182758D01*
X0083393Y0182159D02*
X0114466Y0182159D01*
X0114218Y0181561D02*
X0083641Y0181561D01*
X0083889Y0180962D02*
X0114000Y0180962D01*
X0114000Y0180364D02*
X0083900Y0180364D01*
X0083900Y0179765D02*
X0114000Y0179765D01*
X0114000Y0179167D02*
X0083900Y0179167D01*
X0083694Y0178568D02*
X0114165Y0178568D01*
X0114413Y0177970D02*
X0083446Y0177970D01*
X0083198Y0177371D02*
X0114660Y0177371D01*
X0115073Y0176773D02*
X0082620Y0176773D01*
X0082021Y0176174D02*
X0115672Y0176174D01*
X0116293Y0175576D02*
X0080801Y0175576D01*
X0080911Y0174379D02*
X0116225Y0174379D01*
X0115626Y0173780D02*
X0082067Y0173780D01*
X0082665Y0173182D02*
X0115028Y0173182D01*
X0114642Y0172583D02*
X0083217Y0172583D01*
X0083465Y0171985D02*
X0114394Y0171985D01*
X0114146Y0171386D02*
X0083713Y0171386D01*
X0083900Y0170788D02*
X0114000Y0170788D01*
X0114000Y0170189D02*
X0083900Y0170189D01*
X0083900Y0169591D02*
X0114000Y0169591D01*
X0114000Y0168992D02*
X0083870Y0168992D01*
X0083622Y0168394D02*
X0114237Y0168394D01*
X0114485Y0167795D02*
X0083374Y0167795D01*
X0083043Y0167197D02*
X0114733Y0167197D01*
X0115248Y0166598D02*
X0082445Y0166598D01*
X0081824Y0166000D02*
X0115847Y0166000D01*
X0116050Y0164204D02*
X0080824Y0164204D01*
X0081893Y0163605D02*
X0115452Y0163605D01*
X0114853Y0163007D02*
X0082557Y0163007D01*
X0083012Y0162408D02*
X0114569Y0162408D01*
X0114321Y0161810D02*
X0083328Y0161810D01*
X0083538Y0161211D02*
X0114073Y0161211D01*
X0114000Y0160613D02*
X0083659Y0160613D01*
X0077576Y0164204D02*
X0051332Y0164204D01*
X0052241Y0163605D02*
X0076507Y0163605D01*
X0075843Y0163007D02*
X0052840Y0163007D01*
X0053290Y0162408D02*
X0075388Y0162408D01*
X0075072Y0161810D02*
X0053538Y0161810D01*
X0053785Y0161211D02*
X0074862Y0161211D01*
X0074741Y0160613D02*
X0053900Y0160613D01*
X0051824Y0166000D02*
X0076576Y0166000D01*
X0075955Y0166598D02*
X0052445Y0166598D01*
X0053043Y0167197D02*
X0075357Y0167197D01*
X0075026Y0167795D02*
X0053374Y0167795D01*
X0053622Y0168394D02*
X0074778Y0168394D01*
X0074530Y0168992D02*
X0053870Y0168992D01*
X0053900Y0169591D02*
X0074500Y0169591D01*
X0074500Y0170189D02*
X0053900Y0170189D01*
X0053900Y0170788D02*
X0074500Y0170788D01*
X0074687Y0171386D02*
X0053713Y0171386D01*
X0053465Y0171985D02*
X0074935Y0171985D01*
X0075183Y0172583D02*
X0053217Y0172583D01*
X0052665Y0173182D02*
X0075735Y0173182D01*
X0076333Y0173780D02*
X0052067Y0173780D01*
X0050911Y0174379D02*
X0077489Y0174379D01*
X0077599Y0175576D02*
X0050801Y0175576D01*
X0052021Y0176174D02*
X0076379Y0176174D01*
X0075780Y0176773D02*
X0052620Y0176773D01*
X0053198Y0177371D02*
X0075202Y0177371D01*
X0074954Y0177970D02*
X0053446Y0177970D01*
X0053694Y0178568D02*
X0074706Y0178568D01*
X0074500Y0179167D02*
X0053900Y0179167D01*
X0053900Y0179765D02*
X0074500Y0179765D01*
X0074500Y0180364D02*
X0053900Y0180364D01*
X0053889Y0180962D02*
X0074511Y0180962D01*
X0074759Y0181561D02*
X0053641Y0181561D01*
X0053393Y0182159D02*
X0075007Y0182159D01*
X0075311Y0182758D02*
X0053089Y0182758D01*
X0052490Y0183356D02*
X0075910Y0183356D01*
X0076508Y0183955D02*
X0051892Y0183955D01*
X0050489Y0184553D02*
X0077911Y0184553D01*
X0077178Y0185750D02*
X0051222Y0185750D01*
X0052196Y0186349D02*
X0076204Y0186349D01*
X0075606Y0186947D02*
X0052794Y0186947D01*
X0053271Y0187546D02*
X0075129Y0187546D01*
X0074881Y0188144D02*
X0053519Y0188144D01*
X0053767Y0188743D02*
X0074633Y0188743D01*
X0074500Y0189341D02*
X0053900Y0189341D01*
X0053900Y0189940D02*
X0074500Y0189940D01*
X0074500Y0190539D02*
X0053900Y0190539D01*
X0053816Y0191137D02*
X0074584Y0191137D01*
X0074832Y0191736D02*
X0053568Y0191736D01*
X0053320Y0192334D02*
X0075080Y0192334D01*
X0075486Y0192933D02*
X0052914Y0192933D01*
X0052316Y0193531D02*
X0076084Y0193531D01*
X0076888Y0194130D02*
X0051512Y0194130D01*
X0047779Y0205501D02*
X0006000Y0205501D01*
X0006000Y0206100D02*
X0046453Y0206100D01*
X0045855Y0206698D02*
X0006000Y0206698D01*
X0006000Y0207297D02*
X0045256Y0207297D01*
X0044985Y0207895D02*
X0006000Y0207895D01*
X0006000Y0208494D02*
X0044737Y0208494D01*
X0044500Y0209092D02*
X0006000Y0209092D01*
X0006000Y0209691D02*
X0044500Y0209691D01*
X0044500Y0210289D02*
X0006000Y0210289D01*
X0006000Y0210888D02*
X0044500Y0210888D01*
X0044728Y0211486D02*
X0006000Y0211486D01*
X0006000Y0212085D02*
X0044976Y0212085D01*
X0045237Y0212683D02*
X0006000Y0212683D01*
X0006000Y0213282D02*
X0045835Y0213282D01*
X0046434Y0213880D02*
X0006000Y0213880D01*
X0006000Y0214479D02*
X0047732Y0214479D01*
X0050379Y0165401D02*
X0078021Y0165401D01*
X0076408Y0143855D02*
X0051992Y0143855D01*
X0052591Y0143256D02*
X0075809Y0143256D01*
X0075214Y0142658D02*
X0053186Y0142658D01*
X0053434Y0142059D02*
X0074966Y0142059D01*
X0074718Y0141461D02*
X0053682Y0141461D01*
X0053900Y0140862D02*
X0074500Y0140862D01*
X0074500Y0140264D02*
X0053900Y0140264D01*
X0053900Y0139665D02*
X0074500Y0139665D01*
X0074500Y0139067D02*
X0053900Y0139067D01*
X0053653Y0138468D02*
X0074747Y0138468D01*
X0074995Y0137870D02*
X0053405Y0137870D01*
X0053118Y0137271D02*
X0075282Y0137271D01*
X0075881Y0136672D02*
X0052519Y0136672D01*
X0051921Y0136074D02*
X0076479Y0136074D01*
X0077296Y0105550D02*
X0077662Y0105550D01*
X0076697Y0104951D02*
X0087400Y0104951D01*
X0087400Y0097769D02*
X0083363Y0097769D01*
X0083018Y0097171D02*
X0087400Y0097171D01*
X0087400Y0096572D02*
X0082419Y0096572D01*
X0081761Y0095974D02*
X0087400Y0095974D01*
X0077427Y0104353D02*
X0076098Y0104353D01*
X0076308Y0103754D02*
X0075500Y0103754D01*
X0075709Y0103156D02*
X0074901Y0103156D01*
X0075172Y0102557D02*
X0074303Y0102557D01*
X0073704Y0101959D02*
X0074924Y0101959D01*
X0074676Y0101360D02*
X0073106Y0101360D01*
X0072507Y0100762D02*
X0074500Y0100762D01*
X0074500Y0100163D02*
X0071909Y0100163D01*
X0071310Y0099565D02*
X0074500Y0099565D01*
X0074541Y0098966D02*
X0071000Y0098966D01*
X0071000Y0098368D02*
X0074789Y0098368D01*
X0075037Y0097769D02*
X0071000Y0097769D01*
X0071000Y0097171D02*
X0075382Y0097171D01*
X0075981Y0096572D02*
X0071000Y0096572D01*
X0071000Y0095974D02*
X0076639Y0095974D01*
X0070409Y0103754D02*
X0052092Y0103754D01*
X0052691Y0103156D02*
X0069810Y0103156D01*
X0069212Y0102557D02*
X0053228Y0102557D01*
X0053476Y0101959D02*
X0068613Y0101959D01*
X0068015Y0101360D02*
X0053724Y0101360D01*
X0053900Y0100762D02*
X0067416Y0100762D01*
X0067400Y0100163D02*
X0053900Y0100163D01*
X0053900Y0099565D02*
X0067400Y0099565D01*
X0067400Y0098966D02*
X0053859Y0098966D01*
X0053611Y0098368D02*
X0067400Y0098368D01*
X0067400Y0097769D02*
X0053363Y0097769D01*
X0053018Y0097171D02*
X0067400Y0097171D01*
X0067400Y0096572D02*
X0052419Y0096572D01*
X0051761Y0095974D02*
X0067400Y0095974D01*
X0071007Y0104353D02*
X0050973Y0104353D01*
X0043398Y0051684D02*
X0042798Y0051684D01*
X0042798Y0051085D02*
X0043398Y0051085D01*
X0043398Y0050487D02*
X0042798Y0050487D01*
X0042798Y0049888D02*
X0043398Y0049888D01*
X0043398Y0049290D02*
X0042798Y0049290D01*
X0042798Y0048691D02*
X0043398Y0048691D01*
X0043398Y0048093D02*
X0042798Y0048093D01*
X0042798Y0047494D02*
X0043398Y0047494D01*
X0042798Y0046896D02*
X0006000Y0046896D01*
X0006000Y0047494D02*
X0037959Y0047494D01*
X0038048Y0048093D02*
X0006000Y0048093D01*
X0006000Y0048691D02*
X0038203Y0048691D01*
X0038433Y0049290D02*
X0006000Y0049290D01*
X0006000Y0049888D02*
X0038753Y0049888D01*
X0039192Y0050487D02*
X0006000Y0050487D01*
X0006000Y0051085D02*
X0039805Y0051085D01*
X0040724Y0051684D02*
X0006000Y0051684D01*
X0006000Y0046297D02*
X0038026Y0046297D01*
X0038086Y0045923D02*
X0038336Y0045153D01*
X0038703Y0044433D01*
X0039178Y0043778D01*
X0039750Y0043206D01*
X0040404Y0042731D01*
X0041125Y0042364D01*
X0041894Y0042114D01*
X0042693Y0041987D01*
X0042798Y0041987D01*
X0042798Y0046826D01*
X0037959Y0046826D01*
X0037959Y0046722D01*
X0038086Y0045923D01*
X0038158Y0045699D02*
X0006000Y0045699D01*
X0006000Y0045100D02*
X0038363Y0045100D01*
X0038668Y0044502D02*
X0006000Y0044502D01*
X0006000Y0043903D02*
X0039088Y0043903D01*
X0039652Y0043305D02*
X0006000Y0043305D01*
X0006000Y0042706D02*
X0040453Y0042706D01*
X0041934Y0042108D02*
X0006000Y0042108D01*
X0006000Y0041509D02*
X0052175Y0041509D01*
X0051577Y0042108D02*
X0044262Y0042108D01*
X0043398Y0042108D02*
X0042798Y0042108D01*
X0042798Y0042706D02*
X0043398Y0042706D01*
X0043398Y0043305D02*
X0042798Y0043305D01*
X0042798Y0043903D02*
X0043398Y0043903D01*
X0043398Y0044502D02*
X0042798Y0044502D01*
X0042798Y0045100D02*
X0043398Y0045100D01*
X0043398Y0045699D02*
X0042798Y0045699D01*
X0042798Y0046297D02*
X0043398Y0046297D01*
X0045742Y0042706D02*
X0050978Y0042706D01*
X0050380Y0043305D02*
X0046543Y0043305D01*
X0047108Y0043903D02*
X0050300Y0043903D01*
X0050300Y0044502D02*
X0047528Y0044502D01*
X0047833Y0045100D02*
X0050300Y0045100D01*
X0050300Y0045699D02*
X0048037Y0045699D01*
X0048169Y0046297D02*
X0050300Y0046297D01*
X0024500Y0040911D02*
X0023900Y0040911D01*
X0023900Y0040312D02*
X0024500Y0040312D01*
X0024500Y0039714D02*
X0023900Y0039714D01*
X0023900Y0039115D02*
X0024500Y0039115D01*
X0024500Y0038517D02*
X0023900Y0038517D01*
X0023900Y0037918D02*
X0024500Y0037918D01*
X0024500Y0037320D02*
X0023900Y0037320D01*
X0023900Y0036721D02*
X0024500Y0036721D01*
X0022370Y0040911D02*
X0006000Y0040911D01*
X0006000Y0040312D02*
X0021252Y0040312D01*
X0020544Y0039714D02*
X0006000Y0039714D01*
X0006000Y0039115D02*
X0020037Y0039115D01*
X0019663Y0038517D02*
X0006000Y0038517D01*
X0006000Y0037918D02*
X0019387Y0037918D01*
X0019193Y0037320D02*
X0006000Y0037320D01*
X0006000Y0069041D02*
X0012614Y0069041D01*
X0012015Y0069639D02*
X0006000Y0069639D01*
X0006000Y0070238D02*
X0011417Y0070238D01*
X0010818Y0070836D02*
X0006000Y0070836D01*
X0006000Y0071435D02*
X0010220Y0071435D01*
X0009621Y0072033D02*
X0006000Y0072033D01*
X0006000Y0174977D02*
X0117628Y0174977D01*
X0117136Y0155226D02*
X0116972Y0155226D01*
X0116373Y0154628D02*
X0137400Y0154628D01*
X0137400Y0154029D02*
X0115775Y0154029D01*
X0115176Y0153431D02*
X0137400Y0153431D01*
X0102323Y0064851D02*
X0096000Y0064851D01*
X0096000Y0064253D02*
X0101099Y0064253D01*
X0100500Y0063654D02*
X0096000Y0063654D01*
X0096000Y0063056D02*
X0099902Y0063056D01*
X0099589Y0062457D02*
X0096000Y0062457D01*
X0096000Y0061859D02*
X0099341Y0061859D01*
X0099094Y0061260D02*
X0096000Y0061260D01*
X0096000Y0060662D02*
X0099000Y0060662D01*
X0099000Y0060063D02*
X0096000Y0060063D01*
X0096000Y0059465D02*
X0099000Y0059465D01*
X0099041Y0058866D02*
X0096000Y0058866D01*
X0096000Y0058268D02*
X0099289Y0058268D01*
X0099537Y0057669D02*
X0096000Y0057669D01*
X0096000Y0057070D02*
X0099785Y0057070D01*
X0100374Y0056472D02*
X0096000Y0056472D01*
X0096000Y0055873D02*
X0100973Y0055873D01*
X0102019Y0055275D02*
X0096000Y0055275D01*
D16*
X0034200Y0130000D03*
M02*
