%
M48
M72
T01C0.01378
T02C0.03200
T03C0.04000
T04C0.05118
%
T01
X34200Y130000
T02
X49200Y130000
X49200Y120000
X49200Y110000
X49200Y100000
X49200Y90000
X54200Y45000
X54200Y25000
X79200Y90000
X79200Y100000
X79200Y110000
X79200Y120000
X79200Y130000
X79200Y140000
X79200Y150000
X79200Y160000
X79200Y170000
X79200Y180000
X79200Y190000
X79200Y200000
X79200Y210000
X79200Y220000
X49200Y220000
X49200Y210000
X49200Y200000
X49200Y190000
X49200Y180000
X49200Y170000
X49200Y160000
X49200Y150000
X49200Y140000
X104200Y120000
X114200Y120000
X129200Y110000
X129200Y95000
X129200Y75000
X129200Y65000
X129200Y45000
X114200Y60000
X104200Y60000
X104200Y90000
X114200Y90000
X129200Y130000
T03
X119200Y160000
X119200Y170000
X119200Y180000
X119200Y190000
X119200Y200000
X119200Y210000
X119200Y220000
X119200Y230000
X34700Y80000
X34700Y70000
X23700Y70000
X23700Y80000
X19200Y100000
X19200Y110000
X19200Y120000
X19200Y130000
X19200Y140000
X19200Y150000
X64200Y45000
X64200Y35000
X64200Y25000
X74200Y25000
X74200Y35000
X74200Y45000
T04
X24200Y36102
X24200Y58937
X43098Y47126
M30
