G75*
%MOIN*%
%OFA0B0*%
%FSLAX25Y25*%
%IPPOS*%
%LPD*%
%AMOC8*
5,1,8,0,0,1.08239X$1,22.5*
%
%ADD10C,0.00500*%
%ADD11C,0.07900*%
%ADD12C,0.08177*%
%ADD13OC8,0.05300*%
%ADD14C,0.06900*%
%ADD15C,0.02878*%
D10*
X0021283Y0067153D02*
X0020822Y0067628D01*
X0020451Y0068175D01*
X0020180Y0068779D01*
X0020018Y0069420D01*
X0019970Y0070080D01*
X0020048Y0070800D01*
X0020266Y0071490D01*
X0020614Y0072124D01*
X0021079Y0072678D01*
X0021643Y0073131D01*
X0022285Y0073465D01*
X0022979Y0073667D01*
X0023700Y0073730D01*
X0024425Y0073669D01*
X0025124Y0073467D01*
X0025769Y0073133D01*
X0026338Y0072679D01*
X0026807Y0072123D01*
X0027158Y0071486D01*
X0027379Y0070793D01*
X0027459Y0070070D01*
X0027410Y0069410D01*
X0027246Y0068769D01*
X0026974Y0068166D01*
X0026601Y0067620D01*
X0026139Y0067147D01*
X0025601Y0066761D01*
X0025005Y0066474D01*
X0024368Y0066295D01*
X0023710Y0066230D01*
X0023052Y0066297D01*
X0022415Y0066478D01*
X0021820Y0066766D01*
X0021283Y0067153D01*
X0021127Y0067314D02*
X0026302Y0067314D01*
X0026732Y0067812D02*
X0020697Y0067812D01*
X0020390Y0068311D02*
X0027039Y0068311D01*
X0027256Y0068809D02*
X0020172Y0068809D01*
X0020046Y0069308D02*
X0027384Y0069308D01*
X0027440Y0069806D02*
X0019990Y0069806D01*
X0019994Y0070305D02*
X0027433Y0070305D01*
X0027375Y0070803D02*
X0020050Y0070803D01*
X0020207Y0071302D02*
X0027217Y0071302D01*
X0026985Y0071801D02*
X0020436Y0071801D01*
X0020761Y0072299D02*
X0026658Y0072299D01*
X0026189Y0072798D02*
X0021227Y0072798D01*
X0021960Y0073296D02*
X0025454Y0073296D01*
X0024401Y0076333D02*
X0023680Y0076270D01*
X0022955Y0076331D01*
X0022256Y0076533D01*
X0021611Y0076867D01*
X0021042Y0077321D01*
X0020573Y0077877D01*
X0020222Y0078514D01*
X0020001Y0079207D01*
X0019921Y0079930D01*
X0019970Y0080590D01*
X0020134Y0081231D01*
X0020406Y0081834D01*
X0020779Y0082380D01*
X0021241Y0082853D01*
X0021779Y0083239D01*
X0022375Y0083526D01*
X0023012Y0083705D01*
X0023670Y0083770D01*
X0024328Y0083703D01*
X0024965Y0083522D01*
X0025560Y0083234D01*
X0026097Y0082847D01*
X0026558Y0082372D01*
X0026929Y0081825D01*
X0027200Y0081221D01*
X0027362Y0080580D01*
X0027410Y0079920D01*
X0027332Y0079200D01*
X0027114Y0078510D01*
X0026766Y0077876D01*
X0026301Y0077322D01*
X0025737Y0076869D01*
X0025095Y0076535D01*
X0024401Y0076333D01*
X0023880Y0076287D02*
X0023475Y0076287D01*
X0021768Y0076786D02*
X0025577Y0076786D01*
X0026254Y0077284D02*
X0021089Y0077284D01*
X0020653Y0077783D02*
X0026688Y0077783D01*
X0026988Y0078281D02*
X0020350Y0078281D01*
X0020137Y0078780D02*
X0027199Y0078780D01*
X0027340Y0079278D02*
X0019994Y0079278D01*
X0019938Y0079777D02*
X0027395Y0079777D01*
X0027384Y0080275D02*
X0019947Y0080275D01*
X0020017Y0080774D02*
X0027313Y0080774D01*
X0027177Y0081272D02*
X0020153Y0081272D01*
X0020378Y0081771D02*
X0026954Y0081771D01*
X0026628Y0082269D02*
X0020704Y0082269D01*
X0021158Y0082768D02*
X0026173Y0082768D01*
X0025494Y0083266D02*
X0021835Y0083266D01*
X0023617Y0083765D02*
X0023722Y0083765D01*
X0031154Y0081231D02*
X0031426Y0081834D01*
X0031799Y0082380D01*
X0032261Y0082853D01*
X0032799Y0083239D01*
X0033395Y0083526D01*
X0034032Y0083705D01*
X0034690Y0083770D01*
X0035348Y0083703D01*
X0035985Y0083522D01*
X0036580Y0083234D01*
X0037117Y0082847D01*
X0037578Y0082372D01*
X0037949Y0081825D01*
X0038220Y0081221D01*
X0038382Y0080580D01*
X0038430Y0079920D01*
X0038352Y0079200D01*
X0038134Y0078510D01*
X0037786Y0077876D01*
X0037321Y0077322D01*
X0036757Y0076869D01*
X0036115Y0076535D01*
X0035421Y0076333D01*
X0034700Y0076270D01*
X0033975Y0076331D01*
X0033277Y0076533D01*
X0032631Y0076867D01*
X0032062Y0077321D01*
X0031593Y0077877D01*
X0031242Y0078514D01*
X0031022Y0079207D01*
X0030941Y0079930D01*
X0030990Y0080590D01*
X0031154Y0081231D01*
X0031173Y0081272D02*
X0038197Y0081272D01*
X0038333Y0080774D02*
X0031037Y0080774D01*
X0030967Y0080275D02*
X0038404Y0080275D01*
X0038415Y0079777D02*
X0030958Y0079777D01*
X0031014Y0079278D02*
X0038360Y0079278D01*
X0038219Y0078780D02*
X0031157Y0078780D01*
X0031370Y0078281D02*
X0038009Y0078281D01*
X0037708Y0077783D02*
X0031673Y0077783D01*
X0032109Y0077284D02*
X0037274Y0077284D01*
X0036597Y0076786D02*
X0032789Y0076786D01*
X0034495Y0076287D02*
X0034900Y0076287D01*
X0034720Y0073730D02*
X0033999Y0073667D01*
X0033305Y0073465D01*
X0032663Y0073131D01*
X0032099Y0072678D01*
X0031634Y0072124D01*
X0031286Y0071490D01*
X0031068Y0070800D01*
X0030990Y0070080D01*
X0031038Y0069420D01*
X0031200Y0068779D01*
X0031471Y0068175D01*
X0031842Y0067628D01*
X0032303Y0067153D01*
X0032840Y0066766D01*
X0033435Y0066478D01*
X0034072Y0066297D01*
X0034730Y0066230D01*
X0035388Y0066295D01*
X0036025Y0066474D01*
X0036621Y0066761D01*
X0037159Y0067147D01*
X0037621Y0067620D01*
X0037994Y0068166D01*
X0038266Y0068769D01*
X0038430Y0069410D01*
X0038480Y0070070D01*
X0038399Y0070793D01*
X0038178Y0071486D01*
X0037827Y0072123D01*
X0037358Y0072679D01*
X0036790Y0073133D01*
X0036144Y0073467D01*
X0035445Y0073669D01*
X0034720Y0073730D01*
X0032980Y0073296D02*
X0036474Y0073296D01*
X0037209Y0072798D02*
X0032248Y0072798D01*
X0031781Y0072299D02*
X0037678Y0072299D01*
X0038005Y0071801D02*
X0031456Y0071801D01*
X0031227Y0071302D02*
X0038237Y0071302D01*
X0038395Y0070803D02*
X0031070Y0070803D01*
X0031014Y0070305D02*
X0038453Y0070305D01*
X0038460Y0069806D02*
X0031010Y0069806D01*
X0031066Y0069308D02*
X0038404Y0069308D01*
X0038277Y0068809D02*
X0031192Y0068809D01*
X0031410Y0068311D02*
X0038059Y0068311D01*
X0037752Y0067812D02*
X0031717Y0067812D01*
X0032147Y0067314D02*
X0037322Y0067314D01*
X0036697Y0066815D02*
X0032771Y0066815D01*
X0034002Y0066317D02*
X0035465Y0066317D01*
X0037974Y0081771D02*
X0031398Y0081771D01*
X0031724Y0082269D02*
X0037648Y0082269D01*
X0037194Y0082768D02*
X0032178Y0082768D01*
X0032855Y0083266D02*
X0036514Y0083266D01*
X0034742Y0083765D02*
X0034637Y0083765D01*
X0025677Y0066815D02*
X0021751Y0066815D01*
X0022982Y0066317D02*
X0024445Y0066317D01*
D11*
X0019200Y0100000D03*
X0019200Y0110000D03*
X0019200Y0120000D03*
X0019200Y0130000D03*
X0019200Y0140000D03*
X0019200Y0150000D03*
X0064200Y0045000D03*
X0064200Y0035000D03*
X0064200Y0025000D03*
X0074200Y0025000D03*
X0074200Y0035000D03*
X0074200Y0045000D03*
X0104200Y0060000D03*
X0114200Y0060000D03*
X0114200Y0090000D03*
X0104200Y0090000D03*
X0104200Y0120000D03*
X0114200Y0120000D03*
X0119200Y0160000D03*
X0119200Y0170000D03*
X0119200Y0180000D03*
X0119200Y0190000D03*
X0119200Y0200000D03*
X0119200Y0210000D03*
X0119200Y0220000D03*
X0119200Y0230000D03*
D12*
X0024200Y0036102D03*
X0024200Y0058937D03*
X0043098Y0047126D03*
D13*
X0054200Y0045000D03*
X0054200Y0025000D03*
X0129200Y0045000D03*
X0129200Y0065000D03*
X0129200Y0075000D03*
X0129200Y0095000D03*
X0129200Y0110000D03*
X0129200Y0130000D03*
D14*
X0079200Y0130000D03*
X0079200Y0120000D03*
X0079200Y0110000D03*
X0079200Y0100000D03*
X0079200Y0090000D03*
X0049200Y0090000D03*
X0049200Y0100000D03*
X0049200Y0110000D03*
X0049200Y0120000D03*
X0049200Y0130000D03*
X0049200Y0140000D03*
X0049200Y0150000D03*
X0049200Y0160000D03*
X0049200Y0170000D03*
X0049200Y0180000D03*
X0049200Y0190000D03*
X0049200Y0200000D03*
X0049200Y0210000D03*
X0049200Y0220000D03*
X0079200Y0220000D03*
X0079200Y0210000D03*
X0079200Y0200000D03*
X0079200Y0190000D03*
X0079200Y0180000D03*
X0079200Y0170000D03*
X0079200Y0160000D03*
X0079200Y0150000D03*
X0079200Y0140000D03*
D15*
X0034200Y0130000D03*
M02*
